<svg width="30" height="32" fill="none" xmlns="http://www.w3.org/2000/svg"><path d="M3.745 21.506H0v-9.95L15.012 0l6.163 4.749V2.918l4.112.028v4.832L30 11.498v10.008h-3.802V13.3L15 4.72 3.692 13.358l.053 8.148z" fill="#191D21"/><path d="M14.558 15.074h-3.945v3.975h3.945v-3.975zm4.772 0h-3.945v3.975h3.945v-3.975zm-4.73 4.745h-3.946v3.975H14.6V19.82zm4.769 0h-3.945v3.975h3.945V19.82z" fill="#17C2AC"/><path d="M26.296 22.28v5.987H3.704V22.28H0V32h30v-9.72h-3.704z" fill="#191D21"/><path d="M0 5.029L6.563 0H2.83L0 2.169v2.86zm0 4.65L12.623 0H8.895L0 6.819v2.86z" fill="#17C2AC"/></svg>