<svg width="18" height="18" fill="none" xmlns="http://www.w3.org/2000/svg"><g clip-path="url(#clip0_1154_42081)"><path d="M17.965 9a8.964 8.964 0 01-1.525 4.996.702.702 0 11-1.17-.781A7.562 7.562 0 0016.32 7.1a.703.703 0 011.361-.35c.188.73.284 1.487.284 2.249zm-5.072 6.5a7.58 7.58 0 01-3.928 1.094C4.778 16.594 1.37 13.187 1.37 9s3.407-7.594 7.594-7.594c1.55 0 3.04.464 4.311 1.342a.703.703 0 00.8-1.157A8.95 8.95 0 008.964 0 8.941 8.941 0 002.6 2.636 8.941 8.941 0 00-.035 9a8.94 8.94 0 002.636 6.364A8.941 8.941 0 008.965 18a8.985 8.985 0 004.657-1.297.703.703 0 10-.729-1.203zm-3.86-4.461a.4.4 0 01-.296-.112L5.054 7.435a.703.703 0 10-.968 1.02l3.682 3.492a1.795 1.795 0 001.321.497 1.797 1.797 0 001.301-.63l7.42-9.229a.703.703 0 10-1.096-.881l-7.405 9.21a.402.402 0 01-.276.125z" fill="#168D7F"/></g><defs><clipPath id="clip0_1154_42081"><path fill="#fff" d="M0 0h18v18H0z"/></clipPath></defs></svg>