<svg width="24" height="24" fill="none" xmlns="http://www.w3.org/2000/svg"><g clip-path="url(#clip0_1154_42632)" fill="#168D7F"><path d="M12 6.263A5.744 5.744 0 006.265 12 5.744 5.744 0 0012 17.737 5.744 5.744 0 0017.738 12 5.744 5.744 0 0012 6.263zm0 10.04A4.308 4.308 0 017.699 12 4.308 4.308 0 0112 7.697 4.308 4.308 0 0116.304 12 4.308 4.308 0 0112 16.303z"/><path d="M23.435 9.267l-1.844-.4c-.16-.492-.36-.97-.594-1.432l1.021-1.589a.717.717 0 00-.096-.894L19.05 2.078a.717.717 0 00-.895-.096l-1.589 1.02c-.461-.234-.94-.432-1.431-.593L14.733.565A.717.717 0 0014.032 0H9.968a.717.717 0 00-.7.565l-.402 1.844c-.49.16-.97.36-1.431.594L5.846 1.982a.717.717 0 00-.894.096L2.078 4.952a.717.717 0 00-.096.894l1.02 1.589c-.234.461-.432.94-.593 1.431l-1.844.401A.717.717 0 000 9.968v4.064c0 .337.235.629.565.7l1.844.402c.16.49.36.97.594 1.431l-1.021 1.589a.717.717 0 00.096.895l2.874 2.873a.717.717 0 00.894.096l1.589-1.02c.461.234.94.432 1.431.593l.401 1.844c.072.33.364.565.701.565h4.064c.337 0 .63-.235.7-.565l.402-1.844c.49-.16.97-.36 1.431-.594l1.589 1.021a.717.717 0 00.895-.096l2.873-2.873a.717.717 0 00.096-.895l-1.02-1.589c.234-.461.432-.94.593-1.431l1.844-.401a.717.717 0 00.565-.701V9.968a.717.717 0 00-.565-.7zm-.87 4.187l-1.69.367a.718.718 0 00-.54.509 8.606 8.606 0 01-.794 1.916.717.717 0 00.022.74l.936 1.457-2.056 2.056-1.457-.936a.716.716 0 00-.74-.022 8.612 8.612 0 01-1.916.795.718.718 0 00-.508.538l-.368 1.692h-2.908l-.367-1.692a.718.718 0 00-.509-.538 8.607 8.607 0 01-1.916-.795.717.717 0 00-.74.022l-1.457.936-2.056-2.056.936-1.457a.717.717 0 00.022-.74 8.613 8.613 0 01-.795-1.916.717.717 0 00-.538-.508l-1.692-.368v-2.908l1.692-.367a.718.718 0 00.538-.509 8.605 8.605 0 01.795-1.916.717.717 0 00-.022-.74l-.936-1.457 2.056-2.056 1.457.936a.717.717 0 00.74.022 8.61 8.61 0 011.916-.795.718.718 0 00.508-.538l.368-1.692h2.908l.367 1.692c.057.26.253.467.509.538a8.604 8.604 0 011.916.795c.232.13.516.122.74-.022l1.457-.936 2.056 2.056-.936 1.457a.717.717 0 00-.022.74c.342.605.609 1.25.795 1.916a.717.717 0 00.538.508l1.692.368v2.908z"/></g><defs><clipPath id="clip0_1154_42632"><path fill="#fff" d="M0 0h24v24H0z"/></clipPath></defs></svg>