<svg width="179" height="38" fill="none" xmlns="http://www.w3.org/2000/svg"><g clip-path="url(#clip0_1213_683)"><path fill-rule="evenodd" clip-rule="evenodd" d="M17.831 22.192c-1.612-.696-3.223-.823-4.77-1.188-3.667-.866-7.054-2.36-10.122-4.584-1.217-.88-2.274-1.907-2.767-3.427-.276-.85-.275-1.586.453-2.26.562.417.698 1.266 1.482 1.62-.04-.987-.585-1.763-.79-2.638-.478-2.042.409-3.395 2.426-3.638 2.266-.272 4.125.396 5.673 2.616-1.074-.454-1.803-.959-2.614-1.271-1.006-.39-1.526.317-2.105.785-.585.47-.21 1.14.063 1.654.99 1.858 2.837 2.664 4.521 3.601 2.424 1.35 5.106 2.017 7.754 2.767.716.202.907-.152 1.089-.668 1.513-4.293 3.141-8.546 4.258-12.97.225-.891.577-1.262 1.492-1.382 1.421-.187 2.804-.395 4.26-.28 1.16.091 2.35-.244 3.52-.39.09.526-.257.66-.486.752-1.511.599-2.177 1.95-2.887 3.272-1.91 3.563-3.282 7.362-4.527 11.203-.172.523-1.03 1.09-.39 1.635.376.319 1.135.16 1.718.237 2.27.295 4.553.18 6.832.222.731.015 1.131-.206 1.114-1.007-.006-.217.04-.433.135-.627 2.116-4.034 3.276-8.486 5.28-12.584.933-1.912 2.226-2.44 3.999-2.556.672-.044 1.349-.03 2.023-.009 1.217.04 1.5.56.85 1.614-2.604 4.213-4.65 8.696-6.213 13.41-.12.359-.23.723-.412 1.294 2.217-.62 4.365-.41 6.513-.823-1.034 2.242-2.783 3.124-5.024 3.403-2.507.313-2.471.405-3.079 2.901-.535 2.217-.73 4.499-1.321 6.708-.278 1.035.74 2.357 1.804 2.6 1.794.41 4.809-.764 5.889-2.266.3-.42.337-.871.314-1.35-.213-4.532 2.08-7.765 5.27-10.5 1.207-1.035 2.253-2.406 4.054-2.427.206-.004.413-.001.96-.001-.776 1.052-1.375 1.953-2.06 2.777-2.25 2.711-3.406 5.815-3.368 9.38.006.61.01 1.222.28 1.771 1.558 3.18 2.577 3.391 4.761 1.07 2.943-3.132 3.517-6.854 2.953-10.912-.235-1.685-.888-1.95-2.359-1.144-.257.143-.505.308-.773.472.653-2.045 2.562-3.07 4.593-3.01 2.273.06 3.309 1.398 4.088 3.23.33.775.415 1.576.071 2.387-.136.316-.276.687.098.927.362.234.629-.026.873-.285 1.733-1.833 3.784-3.293 5.617-5.009.276-.258.618-.453.95-.635.6-.328 1.145-.155 1.642.257.494.41.564.913.35 1.508-.24.67-.52 1.338-.51 2.12.692-.106.973-.642 1.395-.971 2.091-1.618 4.26-2.996 7.069-2.48 1.44.263 1.804.866 1.231 2.258-.882 2.151-1.181 4.503-2.22 6.599-.104.213-.247.518.07.672.272.128.492-.105.64-.298.631-.81 1.23-1.643 1.854-2.459 2.148-2.806 4.92-4.812 7.992-6.405.621-.322 1.393-.848 2.096-.076.735.805 1.34 1.674 1.08 2.887-.157.731-.507 1.366-.862 2.004-1.398 2.51-2.264 5.189-2.474 8.078-.104 1.42.379 1.807 1.718 1.36.32-.109.636-.234.954-.351 1.7-.629 1.67-.621 2.152 1.213.16.614.049.973-.493 1.26a117.82 117.82 0 00-3.12 1.714c-2.37 1.35-5.666-.329-6.166-3.303-.37-2.207-.563-4.348.228-6.49.11-.302.319-.732-.05-.933-.362-.199-.588.222-.807.465-1.286 1.433-2.377 2.972-3.225 4.755-.936 1.974-2.194 3.805-4.152 4.929-1.305.748-1.985.409-2.193-1.096-.501-3.62-.218-7.137 1.42-10.46.14-.286.458-.648.08-.917-.264-.187-.538.129-.784.286-3.858 2.47-6.63 5.96-8.805 9.964-.83 1.526-2.048 2.601-3.302 3.683-.258.222-.509.285-.807.105-.468-.285-.392-.73-.292-1.149.582-2.458 1.292-4.867 2.231-7.22.745-1.86 1.608-3.629 2.7-5.331-1.806 1.264-3.663 2.44-4.883 4.33-2.729 4.23-6.407 7.273-10.973 9.184-1.811.76-4.233-.318-5.162-2.123-.46-.893-.571-2.305-1.403-2.543-.499-.14-1.44 1.12-2.1 1.832-1.536 1.66-3.6 2.352-5.547 3.254-2.12.982-5.936-1.1-6.155-4.91-.179-3.096.166-6.11.945-9.092.1-.393.454-.86.089-1.198-.29-.268-.71.058-1.073.133-2.415.507-4.863.438-7.296.29-.998-.062-1.404.217-1.75 1.142-1.552 4.161-2.838 8.395-3.524 12.8-.147.95-.49 1.29-1.496 1.17-1.163-.14-2.341-.027-3.517-.297-.997-.228-1.177-.709-.918-1.605.763-2.647 1.505-5.3 2.257-7.95.293-1.036.638-2.059.866-3.107.24-1.11.75-1.743 1.953-1.668.288.018.665.134 1.084-.288v.001zm129.592-10.245c-1.979 1.762-4.171 2.858-6.839 2.832-2.566-.025-2.672.03-3.302 2.547-1.116 4.454-2.783 8.782-2.959 13.456-.086 2.34.99 3.259 3.185 2.713 1.28-.318 2.257-1.128 3.308-1.844.457-.31.372-.704.329-1.139-.144-1.45-.214-2.864.092-4.349.324-1.579.889-2.944 1.83-4.19 2.152-2.855 4.812-5.085 8.028-6.55 1.565-.714 3.279-.892 4.953-.347 1.875.61 2.417 2.014 2.048 3.94-.463 2.391-1.833 4.025-3.653 5.37-1.676 1.24-3.345 2.479-4.865 3.917-.521.494-1.137.855-1.847.972-.336-1.802.788-2.646 1.87-3.662 1.53-1.438 3.204-2.834 3.658-5.115.376-1.893-.154-2.416-1.984-1.926-.923.248-1.775.665-2.411 1.362-2.214 2.426-3.294 5.358-2.89 8.63.378 3.046 3.136 4.546 5.997 3.789 2.306-.611 4.217-1.895 6.241-3.298.203.77.051 1.381-.342 1.868-1.122 1.389-2.292 2.817-3.771 3.75-3.348 2.115-8.211 2.73-11.519-1.056-.597-.683-.916-.313-1.332.036-2.319 1.947-4.866 2.83-7.95 2.397-1.862-.261-2.729-1.505-3.441-2.826-.604-1.121-.723-2.497-.594-3.89.373-4.064 1.371-7.97 2.491-11.86.327-1.13.931-1.919 2.197-1.947.283-.005.604.022.862-.464a45.098 45.098 0 00-3.444-.538c-4.093-.507-8.25-.84-11.847-3.219-1.16-.765-2.354-1.553-2.882-2.981-.121-.322-.338-.725-.018-.95.33-.234.487.199.65.427.252.353.616.39 1.226.523-.669-1.48-1.962-2.833-.366-4.241.585-.516 2.899-.088 3.836.685-.256.044-.444.083-.633.11-.981.136-.985.488-.377 1.223 2.249 2.718 5.299 3.89 8.529 4.706 1.183.297 2.412.405 3.619.611.527.09 1.075-.03 1.007-.62-.178-1.534 1.068-2.59 1.167-4.01.021-.31.175-.632.547-.582 1.366.178 2.671-.342 4.022-.337.64.001.852.204.567.843-.611 1.374-.757 2.913-1.454 4.257-.346.665-.128.912.598.921 2.605.026 5.21.25 7.863.056zm-25.812 9.127c.165-1.092 1.173-1.225 1.733-1.8.291-.299.815-.505.69-.983-.129-.503-.661-.602-1.134-.662-.167-.02-.338-.053-.504-.047-1.226.04-2.566-.052-3.189 1.327-.64 1.418.47 2.286 1.303 3.064 1.528 1.425 3.086 2.81 4.472 4.386 1.669 1.895 1.557 6.521-.558 7.832-1.256.778-2.516 1.45-4.03 1.725-2.284.412-4.422.076-6.56-.65-1.114-.38-1.887-1.233-2.365-2.227-.628-1.3-1.106-1.11-2.083-.325-1.235.994-2.408 2.107-3.962 2.689-2.157.807-4.325.804-6.481.273-2.213-.544-4.68-3.413-4.797-6.922-.08-2.429.73-4.472 2.109-6.35 1.933-2.63 4.32-4.71 7.217-6.159 1.292-.646 2.69-.782 4.084-.665 2.907.245 4.189 2.831 2.416 5.16-2.348 3.083-5.285 5.552-8.649 7.463-.59.335-.731.103-.795-.457-.109-.905.226-1.517.931-2.098 1.664-1.37 3.487-2.616 4.335-4.768.2-.51.568-1.038.097-1.564-.433-.483-1-.34-1.544-.215-1.47.336-2.735 1.081-3.451 2.422-1.157 2.174-1.986 4.448-1.496 7.04.43 2.276 1.91 3.708 4.203 3.535 2.15-.162 4.243-.711 6.088-1.965.212-.145.401-.278.526-.527.785-1.588 2.443-2.2 4.031-1.539.712.296.949.738.455 1.377-.819 1.061-1.137 2.233-.264 3.308.854 1.052 2.1 1.318 3.456 1.106 1.159-.18 2.064-.665 2.693-1.692.509-.835.396-2.047-.353-2.676a72.98 72.98 0 00-2.792-2.212c-1.976-1.502-3.444-3.388-4.172-5.81-.305-1.015-.064-1.997.638-2.776 2.71-3.004 6.08-4.039 9.976-3.324.519.095 1.04.384 1.475.705 1.878 1.378 1.819 2.509-.227 3.595-1.091.579-2.105 1.432-3.522 1.406zm44.086 5.811c.55-1.72 1.317-3.341 2.046-4.98.882-1.984 1.916-3.908 3.662-5.19 1.538-1.132 3.135-2.423 5.301-1.718 1.432.466 2.115 1.286 2.187 2.8.087 1.808-.405 3.403-1.719 4.683-2.04 1.988-5.183 1.477-5.693-1.785-.019-.118-.093-.226-.186-.442-.58.384-.795 1.004-1.1 1.514-2.248 3.768-3.998 7.78-5.48 11.916-.449 1.252-.914 2.39-2.578 2.183-.613-.074-1.26.073-1.883.168-1.375.21-1.948-.383-1.567-1.786 1.275-4.694 2.228-9.463 3.217-14.223.051-.25.171-.518.128-.753-.368-2.032-.372-1.995 1.55-2.343 1.518-.275 3.019-.649 4.654-1.008l-2.876 10.866.337.098z" fill="#19191C"/></g><defs><clipPath id="clip0_1213_683"><path fill="#fff" d="M0 0h179v38H0z"/></clipPath></defs></svg>