<svg xmlns="http://www.w3.org/2000/svg" width="345" height="257"><path d="M0 0v256h1c.255-5.581 2.007-10.923 4.313-16 18.066-39.787 66.603-27.84 89.901-60 28.954-39.964-18.172-77.468.098-118 6.116-13.57 16.026-24.48 29.688-30.688 21.525-9.78 46.192-10.29 61-31.312H0z" fill="transparent"/><path d="M0 257c4.415-2.851 4.916-11.206 7.04-16 3.737-8.439 9.718-15.785 16.96-21.482C49.116 199.76 84.46 206.065 101.215 174c2.432-4.654 4.485-9.826 5.474-15 6.872-35.946-26.67-66.779-6.813-102C108.25 42.146 122.184 33.675 138 28.518c18.19-5.93 40.247-9.717 50-28.518-8.759 4.435-14.585 13.346-24 17.69C133.698 31.676 97.131 34.189 91.3 75c-5.218 36.523 28.504 66.298 5.61 102-16.39 25.559-46.43 23.162-69.91 37.464C11.217 224.077 4.232 239.827 0 257z" fill="#bde0e0"/><path d="M2 257c16.08 0 37.44 3.758 52.96-.318 4.244-1.114 6.411-5.644 9.214-8.643C68.635 243.266 74.23 239.35 80 236.32c26.222-13.769 54.802-11.65 69.218-42.32 2.23-4.744 3.814-9.79 4.493-15 4.742-36.403-28.08-65.016-5.896-101C171.075 40.271 239.316 53.647 244 0h-38c-4.98 0-12.158-1.3-16.83.603-5.121 2.087-8.937 8.577-13.17 12.068-5.988 4.939-13.728 8.097-21 10.634C127.456 32.913 97.754 40.73 93.29 75c-4.705 36.111 27.486 65.393 6.257 101C83.101 203.585 53.594 200.79 29 215.453 12.935 225.031 6.274 239.66 2 257z" fill="transparent"/><path d="M244 0c-.774 5.741-2.664 10.832-5.248 16-18.328 36.654-63.87 26.3-87.234 56-9.665 12.285-14.504 28.472-12.079 44 4.372 27.992 23.134 51.42 8.752 80-10.076 20.023-29.09 27.249-49.191 33.28-15.304 4.592-34.676 11.396-41 27.72 9.14-5.37 14.84-14.801 25-19.741 29.856-14.515 63.477-14.957 71.985-54.259 8.22-37.968-29.218-68.846-4.236-106 22.39-33.299 71.35-21.656 89.992-60C243.358 11.616 245.2 5.933 246 0h-2z" fill="#bde0e0"/><path d="M246 0c-3.929 18.987-15.101 35.43-33 43.69-19.921 9.194-44.667 9.895-59.331 28.314-32.975 41.417 17.68 82.189-4.042 124.996-8.312 16.38-23.468 26.055-40.627 31.279-17.315 5.272-41.093 10.045-49 28.721 33.734 0 67.753 3.455 100-7.333 20.663-6.913 39.345-22.569 41.826-45.667 3.897-36.262-28.396-66.663-5.736-102 24.693-38.507 85.641-23.363 96.102-76 1.765-8.879-.075-17.206-1.192-26h-45z" fill="transparent"/><path d="M291 0c.805 10.183 2.807 18.787.345 29-11.994 49.757-70.65 34.194-94.255 71-7.077 11.036-11.196 23.813-9.92 37 2.909 30.058 24.943 54.714 8.164 85-2.561 4.623-5.679 9.164-9.424 12.91-4.824 4.824-10.772 8.423-16.91 11.308-9.555 4.491-20.676 7.645-31 9.782v1c8.991-.187 18.581-3.628 27-6.695 7.197-2.622 14.276-6.353 19.999-11.479 5.075-4.545 9.15-9.767 12.244-15.826 5.806-11.368 8.548-24.238 6.293-37-4.463-25.26-21.951-47.964-10.224-74 5.6-12.432 14.344-22.978 26.688-29.19 17.42-8.768 38.58-9.285 54-22.136C287.263 49.622 305.389 16.543 291 0z" fill="#bde0e0"/><path d="M292 0l1 1-1-1z" fill="#bde7e7"/><path d="M293 0c.772 9.766 2.819 18.184.497 28-3.996 16.89-15.746 32.193-31.497 39.68-22.266 10.583-48.697 10.54-63.452 33.32-28.953 44.701 30.066 91.916-10.587 133.996-5.015 5.191-10.509 9.067-16.961 12.248-8.2 4.042-17.942 7.418-27 8.756 10.027 4.208 27.104 1 38 1h37c4.958 0 12.183 1.317 16.826-.603 10.16-4.203 13.861-23.894 14.885-33.397 3.423-31.785-25.176-56.218-10.399-89 17.23-38.227 58.783-28.175 84.648-54.04 16.843-16.844 19.385-41.33 11.605-62.96-1.577-4.383-3.051-13.208-7.064-15.972C322.418-3.852 301.576 0 293 0z" fill="transparent"/><path d="M330 0c4.085 12.075 10.006 24.092 10.91 37 .404 5.751-.177 11.416-1.575 17-13.066 52.168-82.16 34.715-100.521 83-11.424 30.043 11.138 53.783 11.927 83 .38 14.079-7.124 25.373-13.741 37 10.134-4.953 14.573-21.545 15.032-32 1.231-28.085-20.489-53.172-13.148-81 1.508-5.714 3.611-11.014 6.814-16 19.169-29.831 55.24-23.192 79.287-45.174C352.193 57.956 339.889 29.763 333 0h-3z" fill="#bde0e0"/><path d="M333 0c2.504 16.957 12.623 31.003 9.384 49-3.278 18.216-14.762 34.313-31.384 42.63-26.096 13.056-56.739 11.938-69.546 43.37-11.493 28.205 6.632 49.776 10.257 77 2.313 17.369-3.84 30.612-12.711 45h43c3.78 0 12.271 1.579 15.012-1.603 3.387-3.933 2.123-12.75 1.398-17.397-2.288-14.646-8.929-27.769-12.675-42-10.888-41.359 22.535-68.399 59.265-76V0h-12z" fill="transparent"/><path d="M183 3l1 1-1-1m-1 1l1 1-1-1z" fill="#b7dfdf"/><path d="M181 5l1 1-1-1m-1 1l1 1-1-1m-1 1l1 1-1-1z" fill="#afdfdf"/><path d="M242 7l1 1-1-1z" fill="#b7dfdf"/><path d="M178 8l1 1-1-1z" fill="#afdfdf"/><path d="M177 9l1 1-1-1m64 1l1 1-1-1z" fill="#b7dfdf"/><path d="M294 11l1 1-1-1z" fill="#bde7e7"/><path d="M173 12l1 1-1-1m-3 2l1 1-1-1z" fill="#afdfdf"/><path d="M338 17l1 1-1-1z" fill="#bde7e7"/><path d="M162 18l1 1-1-1m-5 2l1 1-1-1m-3 1l1 1-1-1m-3 1l1 1-1-1z" fill="#afdfdf"/><path d="M235 22l1 1-1-1z" fill="#b7dfdf"/><path d="M294 22l1 1-1-1z" fill="#bde7e7"/><path d="M148 23l1 1-1-1z" fill="#b7dfdf"/><path d="M144 24l1 1-1-1z" fill="#afdfdf"/><path d="M141 25l1 1-1-1m92 0l1 1-1-1z" fill="#b7dfdf"/><path d="M232 26l1 1-1-1m-98 1l1 1-1-1z" fill="#afdfdf"/><path d="M137 28l1 1-1-1z" fill="#b7dfdf"/><path d="M126 30l1 1-1-1z" fill="#afdfdf"/><path d="M124 31l1 1-1-1m166 1l1 1-1-1m-170 1l1 1-1-1z" fill="#b7dfdf"/><path d="M342 33l1 1-1-1z" fill="#bde7e7"/><path d="M118 34l1 1-1-1m105 1l1 1-1-1z" fill="#afdfdf"/><path d="M289 35l1 1-1-1m-174 1l1 1-1-1z" fill="#b7dfdf"/><path d="M112 38l1 1-1-1z" fill="#afdfdf"/><path d="M111 39l1 1-1-1z" fill="#b7dfdf"/><path d="M217 39l1 1-1-1m-2 1l1 1-1-1m-2 1l1 1-1-1m-2 1l1 1-1-1m-5 2l1 1-1-1m-3 1l1 1-1-1z" fill="#afdfdf"/><path d="M284 45l1 1-1-1m-180 1l1 1-1-1z" fill="#b7dfdf"/><path d="M200 46l1 1-1-1z" fill="#afdfdf"/><path d="M103 47l1 1-1-1z" fill="#b7dfdf"/><path d="M197 47l1 1-1-1z" fill="#afdfdf"/><path d="M282 48l1 1-1-1z" fill="#b7dfdf"/><path d="M190 49l1 1-1-1z" fill="#afdfdf"/><path d="M101 50l1 1-1-1m86 0l1 1-1-1m6 0l1 1-1-1m86 2l1 1-1-1M99 53l1 1-1-1m84 0l1 1-1-1m95 0l1 1-1-1z" fill="#b7dfdf"/><path d="M175 54l1 1-1-1m102 0l1 1-1-1m-1 1l1 1-1-1m-1 1l1 1-1-1m-1 1l1 1-1-1z" fill="#afdfdf"/><path d="M338 57l1 1-1-1m-65 1l1 1-1-1z" fill="#b7dfdf"/><path d="M165 59l1 1-1-1m-3 2l1 1-1-1z" fill="#afdfdf"/><path d="M269 61l1 1-1-1m67 1l1 1-1-1M94 63l1 1-1-1z" fill="#b7dfdf"/><path d="M264 64l1 1-1-1z" fill="#afdfdf"/><path d="M335 64l1 1-1-1z" fill="#b7dfdf"/><path d="M157 65l1 1-1-1m105 0l1 1-1-1z" fill="#afdfdf"/><path d="M156 66l1 1-1-1z" fill="#b7dfdf"/><path d="M260 66l1 1-1-1z" fill="#afdfdf"/><path d="M334 66l1 1-1-1m-179 1l1 1-1-1m-1 1l1 1-1-1z" fill="#b7dfdf"/><path d="M255 68l1 1-1-1z" fill="#afdfdf"/><path d="M333 68l1 1-1-1M92 69l1 1-1-1z" fill="#b7dfdf"/><path d="M153 69l1 1-1-1m93 2l1 1-1-1z" fill="#afdfdf"/><path d="M252 71l1 1-1-1m79 0l1 1-1-1z" fill="#b7dfdf"/><path d="M243 72l1 1-1-1z" fill="#afdfdf"/><path d="M150 73l1 1-1-1z" fill="#b7dfdf"/><path d="M236 74l1 1-1-1z" fill="#afdfdf"/><path d="M329 74l1 1-1-1m-96 1l1 1-1-1m-85 1l1 1-1-1z" fill="#b7dfdf"/><path d="M224 78l1 1-1-1z" fill="#afdfdf"/><path d="M92 81v4h1l-1-4z" fill="#bde7e7"/><path d="M145 81l1 1-1-1m-1 2l1 1-1-1m70 0l1 1-1-1z" fill="#b7dfdf"/><path d="M212 84l1 1-1-1z" fill="#afdfdf"/><path d="M319 84l1 1-1-1z" fill="#b7dfdf"/><path d="M316 86l1 1-1-1z" fill="#afdfdf"/><path d="M208 87l1 1-1-1m-66 1l1 1-1-1m169 1l1 1-1-1m-2 1l1 1-1-1z" fill="#b7dfdf"/><path d="M304 92l1 1-1-1z" fill="#afdfdf"/><path d="M93 93l1 1-1-1z" fill="#bde7e7"/><path d="M200 95l1 1-1-1z" fill="#b7dfdf"/><path d="M292 96l1 1-1-1z" fill="#afdfdf"/><path d="M289 97l1 1-1-1m6 0l1 1-1-1z" fill="#b7dfdf"/><path d="M285 98l1 1-1-1z" fill="#afdfdf"/><path d="M197 99l1 1-1-1z" fill="#b7dfdf"/><path d="M282 99l1 1-1-1z" fill="#afdfdf"/><path d="M279 100l1 1-1-1z" fill="#b7dfdf"/><path d="M276 101l1 1-1-1m-81 1l1 1-1-1m78 0l1 1-1-1z" fill="#afdfdf"/><path d="M194 104l1 1-1-1z" fill="#b7dfdf"/><path d="M266 105l1 1-1-1z" fill="#afdfdf"/><path d="M193 106l1 1-1-1m-1 2l1 1-1-1m69 0l1 1-1-1m-70 2l1 1-1-1m67 0l1 1-1-1z" fill="#b7dfdf"/><path d="M254 113l1 1-1-1m-1 1l1 1-1-1z" fill="#afdfdf"/><path d="M252 115l1 1-1-1z" fill="#b7dfdf"/><path d="M141 116l1 1-1-1z" fill="#bde7e7"/><path d="M251 116l1 1-1-1m-1 1l1 1-1-1z" fill="#afdfdf"/><path d="M298 257h1c10.524-33.481-23.786-62.848-9.127-97 6.019-14.023 17.172-24.601 31.127-30.573 6.489-2.776 19.786-3.866 24-9.427-8.69 1.279-17.93 4.416-26 7.873-6.086 2.606-12.014 5.992-16.961 10.427-32.203 28.872-11.251 62.087-4.488 95.7 1.614 8.022.615 14.982.449 23z" fill="#bde0e0"/><path d="M142 121l1 1-1-1z" fill="#bde7e7"/><path d="M247 121l1 1-1-1z" fill="#b7dfdf"/><path d="M338 121l1 1-1-1m-92 1l1 1-1-1z" fill="#afdfdf"/><path d="M299 257h46V122c-8.756 1.18-17.936 4.287-26 7.862-6.672 2.958-12.845 6.917-17.96 12.153-3.999 4.094-7.214 8.873-9.77 13.985-17.734 35.467 16.436 65.661 7.73 101z" fill="transparent"/><path d="M331 123l1 1-1-1z" fill="#afdfdf"/><path d="M103 124l1 1-1-1z" fill="#bde7e7"/><path d="M328 124l1 1-1-1z" fill="#afdfdf"/><path d="M334 124l1 1-1-1z" fill="#b7dfdf"/><path d="M244 125l1 1-1-1m81 0l1 1-1-1m-3 1l1 1-1-1z" fill="#afdfdf"/><path d="M243 127l1 1-1-1z" fill="#b7dfdf"/><path d="M144 128l1 1-1-1z" fill="#bde7e7"/><path d="M317 128l1 1-1-1m-2 1l1 1-1-1m-2 1l1 1-1-1m-2 1l1 1-1-1m-3 2l1 1-1-1z" fill="#afdfdf"/><path d="M239 135l1 1-1-1z" fill="#b7dfdf"/><path d="M305 135l1 1-1-1z" fill="#afdfdf"/><path d="M304 136l1 1-1-1z" fill="#b7dfdf"/><path d="M189 139l1 1-1-1m-82 2l1 1-1-1z" fill="#bde7e7"/><path d="M297 143l1 1-1-1m-1 1l1 1-1-1m-2 3l1 1-1-1z" fill="#b7dfdf"/><path d="M237 149l1 1-1-1z" fill="#bde7e7"/><path d="M292 150l1 1-1-1z" fill="#b7dfdf"/><path d="M107 153l1 1-1-1z" fill="#bde7e7"/><path d="M287 160l1 1-1-1z" fill="#b7dfdf"/><path d="M237 162l1 1-1-1z" fill="#bde7e7"/><path d="M103 163l1 1-1-1z" fill="#b7dfdf"/><path d="M155 164l1 1-1-1z" fill="#bde7e7"/><path d="M101 168l1 1-1-1z" fill="#b7dfdf"/><path d="M238 168l1 1-1-1m1 4l1 1-1-1z" fill="#bde7e7"/><path d="M98 174l1 1-1-1m-1 2l1 1-1-1m-2 3l1 1-1-1m-3 4l1 1-1-1m-1 1l1 1-1-1z" fill="#b7dfdf"/><path d="M285 184l1 1-1-1z" fill="#bde7e7"/><path d="M90 185l1 1-1-1m-1 1l1 1-1-1m-1 1l1 1-1-1m-1 1l1 1-1-1m64 0l1 1-1-1z" fill="#b7dfdf"/><path d="M83 191l1 1-1-1z" fill="#afdfdf"/><path d="M286 191l1 1-1-1z" fill="#bde7e7"/><path d="M80 193l1 1-1-1z" fill="#afdfdf"/><path d="M149 193l1 1-1-1m-1 2l1 1-1-1m-73 1l1 1-1-1m72 1l1 1-1-1m-1 2l1 1-1-1z" fill="#b7dfdf"/><path d="M288 199l1 1-1-1z" fill="#bde7e7"/><path d="M65 200l1 1-1-1m-3 1l1 1-1-1z" fill="#afdfdf"/><path d="M59 202l1 1-1-1m85 0l1 1-1-1z" fill="#b7dfdf"/><path d="M52 204l1 1-1-1z" fill="#afdfdf"/><path d="M142 205l1 1-1-1z" fill="#b7dfdf"/><path d="M45 206l1 1-1-1m96 0l1 1-1-1m-99 1l1 1-1-1z" fill="#afdfdf"/><path d="M48 207l1 1-1-1z" fill="#b7dfdf"/><path d="M251 210l1 1-1-1z" fill="#bde7e7"/><path d="M32 211l1 1-1-1m-2 1l1 1-1-1m103 2l1 1-1-1m-108 1l1 1-1-1m-3 2l1 1-1-1z" fill="#afdfdf"/><path d="M129 217l1 1-1-1m-108 1l1 1-1-1m175 2l1 1-1-1z" fill="#b7dfdf"/><path d="M252 220l1 1-1-1z" fill="#bde7e7"/><path d="M119 222l1 1-1-1z" fill="#afdfdf"/><path d="M117 223l1 1-1-1z" fill="#b7dfdf"/><path d="M114 224l1 1-1-1m-3 1l1 1-1-1z" fill="#afdfdf"/><path d="M193 225l1 1-1-1z" fill="#b7dfdf"/><path d="M297 225l1 1-1-1z" fill="#bde7e7"/><path d="M13 226l1 1-1-1z" fill="#b7dfdf"/><path d="M108 226l1 1-1-1z" fill="#afdfdf"/><path d="M12 227l1 1-1-1z" fill="#b7dfdf"/><path d="M101 228l1 1-1-1z" fill="#afdfdf"/><path d="M191 228l1 1-1-1m-93 1l1 1-1-1m6 0l1 1-1-1m-94 1l1 1-1-1m84 2l1 1-1-1m94 0l1 1-1-1M8 233l1 1-1-1m179 0l1 1-1-1z" fill="#b7dfdf"/><path d="M299 233l1 1-1-1z" fill="#bde7e7"/><path d="M83 234l1 1-1-1m103 0l1 1-1-1z" fill="#afdfdf"/><path d="M7 235l1 1-1-1z" fill="#b7dfdf"/><path d="M81 235l1 1-1-1m104 0l1 1-1-1m-106 1l1 1-1-1z" fill="#afdfdf"/><path d="M184 236l1 1-1-1M6 237l1 1-1-1z" fill="#b7dfdf"/><path d="M77 237l1 1-1-1z" fill="#afdfdf"/><path d="M183 237l1 1-1-1M5 239l1 1-1-1z" fill="#b7dfdf"/><path d="M72 240l1 1-1-1m107 0l1 1-1-1z" fill="#afdfdf"/><path d="M246 240l1 1-1-1z" fill="#b7dfdf"/><path d="M300 240l1 1-1-1z" fill="#bde7e7"/><path d="M4 241l1 1-1-1z" fill="#b7dfdf"/><path d="M176 242l1 1-1-1m-109 2l1 1-1-1z" fill="#afdfdf"/><path d="M66 245l1 1-1-1m-1 1l1 1-1-1z" fill="#b7dfdf"/><path d="M168 246l1 1-1-1z" fill="#afdfdf"/><path d="M64 247l1 1-1-1z" fill="#b7dfdf"/><path d="M166 247l1 1-1-1z" fill="#afdfdf"/><path d="M63 248l1 1-1-1z" fill="#b7dfdf"/><path d="M163 248l1 1-1-1z" fill="#afdfdf"/><path d="M242 248l1 1-1-1z" fill="#b7dfdf"/><path d="M300 248l1 1-1-1z" fill="#bde7e7"/><path d="M62 249l1 1-1-1m98 0l1 1-1-1m-3 1l1 1-1-1z" fill="#afdfdf"/><path d="M241 250l1 1-1-1z" fill="#b7dfdf"/><path d="M154 251l1 1-1-1z" fill="#afdfdf"/><path d="M59 253l1 1-1-1z" fill="#b7dfdf"/><path d="M147 253l1 1-1-1z" fill="#afdfdf"/><path d="M144 254l1 1-1-1m6 0l1 1-1-1m88 0l1 1-1-1m-181 2l1 1-1-1m240 0l1 1-1-1z" fill="#b7dfdf"/></svg>