<svg width="144" height="32" fill="none" xmlns="http://www.w3.org/2000/svg"><g clip-path="url(#clip0_1154_43403)" fill="#fff"><path d="M3.775 21.506H0v-9.95L15.132 0l6.21 4.749V2.918l4.146.028v4.832l4.75 3.72v10.008h-3.832V13.3L15.119 4.72 3.721 13.358l.054 8.148z"/><path d="M14.674 15.074h-3.977v3.975h3.977v-3.975zm4.809 0h-3.977v3.975h3.977v-3.975zm-4.766 4.745H10.74v3.975h3.977V19.82zm4.807 0h-3.977v3.975h3.977V19.82z"/><path d="M26.505 22.28v5.987H3.733V22.28H0V32h30.238v-9.72h-3.733zM0 5.029L6.615 0H2.853L0 2.169v2.86zm0 4.65L12.723 0H8.965L0 6.819v2.86zm41.83 20.502V16.309h3.425v5.02h3.136v-5.02h3.425V30.18h-3.425v-5.543h-3.136v5.543H41.83zm13.48-1.77c-1.115-1.308-1.675-3.033-1.675-5.164 0-2.132.56-3.856 1.675-5.165 1.12-1.309 2.59-1.963 4.417-1.963 1.807 0 3.26.654 4.367 1.959 1.108 1.309 1.66 3.029 1.66 5.173s-.553 3.864-1.66 5.173c-1.107 1.304-2.56 1.959-4.367 1.959-1.828-.009-3.297-.663-4.417-1.972zm2.486-7.86c-.49.688-.736 1.585-.736 2.696 0 1.11.246 2.012.736 2.703.49.696 1.132 1.042 1.93 1.042.779 0 1.409-.346 1.886-1.042.474-.69.712-1.592.712-2.703 0-1.111-.238-2.009-.712-2.696-.477-.687-1.107-1.029-1.885-1.029-.795 0-1.44.342-1.93 1.03zm9.794 9.63V16.309h5.059c1.243 0 2.239.362 2.988 1.078.75.716 1.124 1.683 1.124 2.889 0 .49-.103.983-.305 1.473-.201.494-.518.88-.955 1.156a3.9 3.9 0 011.264 1.408c.3.564.449 1.164.449 1.802 0 1.23-.375 2.218-1.132 2.955-.753.736-1.754 1.107-3.001 1.107H67.59v.004zm3.367-8.416h1.404a.958.958 0 00.736-.312c.194-.21.293-.482.3-.82.01-.374-.081-.674-.27-.905-.186-.23-.441-.345-.762-.345H70.96v2.382h-.004zm0 5.3h1.869a.95.95 0 00.733-.328c.197-.218.296-.502.296-.852 0-.375-.099-.68-.297-.914a.922.922 0 00-.732-.354h-1.869v2.449zM111.873 32v-4.827c.593 0 .992-.124 1.202-.375.21-.25.342-.732.399-1.452l.877-9.037h8.467v10.864h1.124V32h-3.194v-1.819h-5.681V32h-3.194zm4.384-4.749h3.136v-7.827h-2.111l-.494 6.045c-.029.88-.21 1.473-.531 1.782zm16.054 2.613v-13.95h1.21l4.635 6.008 4.635-6.008h1.21v13.95h-3.425v-6.276l-2.235 2.972h-.379l-2.223-2.971v6.28h-3.428v-.005zM98.264 15.399c.873 0 1.585-.3 2.144-.905.56-.605.848-1.416.869-2.432l-1.762-.223a.964.964 0 01-.411.708c-.235.16-.527.243-.877.243-.342 0-.618-.082-.832-.243-.214-.16-.32-.395-.32-.708l-1.763.223c.009 1.016.28 1.827.824 2.432.543.6 1.251.905 2.128.905zm-2.247 7.491v-6.58h-3.43v13.97h1.01l5.91-7.016v6.918h3.425V16.194h-1.07l-5.845 6.695zm-13.042 0v-6.58h-3.424v13.97h1.008l5.911-7.016v6.918h3.425V16.194h-1.074l-5.846 6.695zm46.912-6.82v13.95h-3.36V16.07h3.36z"/></g><defs><clipPath id="clip0_1154_43403"><path fill="#fff" d="M0 0h144v32H0z"/></clipPath></defs></svg>