<svg width="117" height="26" fill="none" xmlns="http://www.w3.org/2000/svg"><g clip-path="url(#clip0_1205_4822)"><path d="M3.067 17.474H0V9.389L12.294 0l5.047 3.859V2.37l3.368.023v3.925l3.86 3.023v8.132h-3.114v-6.667l-9.17-6.972-9.262 7.018.044 6.62z" fill="#191D21"/><path d="M11.922 12.248h-3.23v3.23h3.23v-3.23zm3.908 0H12.6v3.23h3.23v-3.23zm-3.873 3.855h-3.23v3.23h3.23v-3.23zm3.907 0h-3.231v3.23h3.23v-3.23z" fill="#17C2AC"/><path d="M21.535 18.102v4.865H3.033v-4.865H0V26h24.569v-7.898h-3.034z" fill="#191D21"/><path d="M0 4.086L5.375 0H2.318L0 1.762v2.324zm0 3.778L10.338 0H7.284L0 5.54v2.324z" fill="#17C2AC"/><path d="M33.986 24.522V13.251h2.783v4.079h2.548v-4.08H42.1v11.272h-2.783v-4.504H36.77v4.504h-2.783zm10.954-1.438c-.907-1.063-1.362-2.464-1.362-4.196 0-1.732.455-3.133 1.361-4.196.91-1.063 2.104-1.595 3.589-1.595 1.468 0 2.649.532 3.549 1.591.9 1.064 1.347 2.461 1.347 4.204 0 1.742-.448 3.14-1.347 4.202-.9 1.06-2.08 1.592-3.549 1.592-1.485-.007-2.679-.538-3.589-1.602zm2.02-6.386c-.399.558-.6 1.287-.6 2.19s.201 1.635.6 2.197c.397.565.92.846 1.568.846.632 0 1.144-.281 1.532-.846.384-.562.578-1.294.578-2.197s-.194-1.632-.578-2.19c-.388-.558-.9-.836-1.532-.836-.645 0-1.17.278-1.569.836zm7.956 7.824V13.251h4.11c1.01 0 1.82.294 2.428.876.61.582.913 1.367.913 2.347 0 .398-.083.8-.247 1.197a1.953 1.953 0 01-.776.94 3.17 3.17 0 011.027 1.143c.244.458.364.946.364 1.465 0 1-.304 1.802-.92 2.4-.611.599-1.424.9-2.437.9h-4.462v.003zm2.736-6.838h1.14a.777.777 0 00.599-.254c.157-.17.237-.39.244-.665.007-.304-.067-.548-.22-.736a.752.752 0 00-.62-.28h-1.14v1.935h-.003zm0 4.307h1.518c.238 0 .435-.09.596-.267.16-.178.24-.408.24-.693 0-.304-.08-.551-.24-.742a.749.749 0 00-.596-.288h-1.518v1.99zM90.897 26v-3.922c.481 0 .805-.1.976-.304.17-.204.278-.596.325-1.18l.712-7.343h6.88v8.827h.913V26h-2.596v-1.478h-4.615V26h-2.596zm3.561-3.858h2.549v-6.36H95.29l-.401 4.912c-.024.715-.17 1.197-.432 1.448zm13.044 2.123V12.93h.983l3.766 4.881 3.766-4.881H117v11.335h-2.782v-5.1l-1.816 2.415h-.308l-1.806-2.414v5.102h-2.786v-.003z" fill="#191D21"/><path d="M79.84 12.512c.708 0 1.287-.244 1.742-.736.455-.491.689-1.15.706-1.976l-1.432-.18a.783.783 0 01-.334.575c-.191.13-.428.197-.713.197-.277 0-.501-.067-.675-.197-.174-.13-.261-.321-.261-.575l-1.432.18c.007.826.228 1.485.67 1.976.44.488 1.016.736 1.728.736z" fill="#17C2AC"/><path d="M78.013 18.597v-5.346h-2.786v11.351h.819l4.803-5.7v5.62h2.782V13.157h-.87l-4.748 5.44zm-10.596 0v-5.346h-2.782v11.351h.82l4.802-5.7v5.62h2.782V13.157h-.873l-4.749 5.44zm38.115-5.54v11.335h-2.729V13.057h2.729z" fill="#191D21"/></g><defs><clipPath id="clip0_1205_4822"><path fill="#fff" d="M0 0h117v26H0z"/></clipPath></defs></svg>