<svg width="144" height="33" fill="none" xmlns="http://www.w3.org/2000/svg"><g clip-path="url(#clip0_1154_41889)"><path d="M3.775 22.178H0V11.917L15.132 0l6.21 4.897V3.01l4.146.03v4.98l4.75 3.836v10.321h-3.832v-8.462L15.119 4.868 3.721 13.775l.054 8.403z" fill="#fff"/><path d="M14.674 15.545h-3.977v4.1h3.977v-4.1zm4.808 0h-3.976v4.1h3.976v-4.1zm-4.765 4.893H10.74v4.1h3.977v-4.1zm4.806 0h-3.976v4.1h3.976v-4.1z" fill="#17C2AC"/><path d="M26.505 22.976v6.175H3.733v-6.175H0V33h30.238V22.976h-3.733z" fill="#fff"/><path d="M0 5.186L6.615 0H2.853L0 2.236v2.95zm0 4.795L12.723 0H8.965L0 7.032v2.95z" fill="#17C2AC"/><path d="M41.83 31.124V16.818h3.425v5.178h3.136v-5.178h3.425v14.306h-3.425v-5.716h-3.136v5.716H41.83zM55.31 29.3c-1.115-1.35-1.675-3.128-1.675-5.327 0-2.198.56-3.976 1.675-5.326 1.12-1.35 2.59-2.024 4.417-2.024 1.807 0 3.26.675 4.367 2.02 1.108 1.35 1.66 3.124 1.66 5.335 0 2.21-.553 3.985-1.66 5.334-1.107 1.345-2.56 2.02-4.367 2.02-1.828-.008-3.297-.683-4.417-2.033zm2.486-8.106c-.49.708-.736 1.634-.736 2.78 0 1.145.246 2.075.736 2.788.49.717 1.132 1.073 1.93 1.073.779 0 1.409-.356 1.886-1.073.474-.713.712-1.643.712-2.789 0-1.145-.238-2.07-.712-2.78-.477-.708-1.107-1.06-1.885-1.06-.795 0-1.44.352-1.93 1.06zm9.794 9.93V16.818h5.059c1.243 0 2.239.374 2.988 1.112.75.739 1.124 1.736 1.124 2.98a4.08 4.08 0 01-.305 1.519 2.454 2.454 0 01-.955 1.192c.544.386.968.87 1.264 1.452.3.58.449 1.2.449 1.858 0 1.27-.375 2.288-1.132 3.047-.753.76-1.754 1.142-3.001 1.142H67.59v.004zm3.367-8.678h1.404a.945.945 0 00.736-.323c.194-.216.293-.497.3-.844.01-.387-.081-.696-.27-.934a.916.916 0 00-.762-.357H70.96v2.458h-.004zm0 5.466h1.869a.937.937 0 00.733-.34c.197-.225.296-.518.296-.878 0-.386-.099-.7-.297-.942-.197-.242-.44-.365-.732-.365h-1.869v2.525zM111.873 33v-4.978c.593 0 .992-.127 1.202-.386.21-.26.342-.756.399-1.498l.877-9.32h8.467v11.204h1.124V33h-3.194v-1.876h-5.681V33h-3.194zm4.384-4.897h3.136V20.03h-2.111l-.494 6.234c-.029.908-.21 1.52-.531 1.838zm16.054 2.694V16.412h1.21l4.635 6.196 4.635-6.196h1.21v14.386h-3.425v-6.471l-2.235 3.064h-.379l-2.223-3.064v6.476h-3.428v-.005z" fill="#fff"/><path d="M98.264 15.88c.873 0 1.585-.31 2.144-.933.56-.624.848-1.46.869-2.508l-1.762-.23a1 1 0 01-.411.73c-.235.166-.527.25-.877.25-.342 0-.618-.084-.832-.25-.214-.165-.32-.407-.32-.73l-1.763.23c.009 1.048.28 1.884.824 2.508.543.62 1.251.933 2.128.933z" fill="#17C2AC"/><path d="M96.017 23.604v-6.786h-3.43v14.408h1.01l5.91-7.236v7.134h3.425V16.7h-1.07l-5.845 6.904zm-13.042 0v-6.786h-3.424v14.408h1.008l5.911-7.236v7.134h3.425V16.7h-1.074l-5.846 6.904zm46.911-7.032V30.96h-3.359V16.572h3.359z" fill="#fff"/></g><defs><clipPath id="clip0_1154_41889"><path fill="#fff" d="M0 0h144v33H0z"/></clipPath></defs></svg>