<svg width="24" height="24" fill="none" xmlns="http://www.w3.org/2000/svg"><path fill-rule="evenodd" clip-rule="evenodd" d="M21.75 5v14A3.75 3.75 0 0118 22.75H6A3.75 3.75 0 012.25 19V5A3.75 3.75 0 016 1.25h12A3.75 3.75 0 0121.75 5zm-1.5 0A2.25 2.25 0 0018 2.75H6A2.25 2.25 0 003.75 5v14A2.25 2.25 0 006 21.25h12A2.25 2.25 0 0020.25 19V5z" fill="#168D7F"/><path fill-rule="evenodd" clip-rule="evenodd" d="M12 5.25a.75.75 0 010 1.5H7a.75.75 0 010-1.5h5zm5 4a.75.75 0 010 1.5H7a.75.75 0 010-1.5h10zm0 4a.75.75 0 010 1.5H7a.75.75 0 010-1.5h10zm0 4a.75.75 0 010 1.5H7a.75.75 0 010-1.5h10z" fill="#168D7F"/></svg>