<svg viewBox="0 0 560 703" xmlns="http://www.w3.org/2000/svg" xmlns:xlink="http://www.w3.org/1999/xlink"><style>:root&gt;svg{display:none}:root&gt;svg:target{display:block}</style><svg viewBox="0 0 8 10" id="sprite--arr"><path d="M7.202 4.071L1.647.27C1.391.093 1.132 0 .917 0 .502 0 .245.333.245.891V9.11c0 .557.257.89.671.89.215 0 .47-.093.727-.27L7.2 5.929c.357-.245.555-.574.555-.928 0-.354-.195-.684-.553-.929z"/></svg><svg fill="none" viewBox="0 0 18 18" id="sprite--assignment" xmlns="http://www.w3.org/2000/svg"><g clip-path="url(#abclip0_660_4464)" fill="#168D7F"><path d="M3.042 16.774c.136.65.708 1.133 1.394 1.133h10.185c.788 0 1.43-.641 1.43-1.43V2.611c0-.664-.463-1.23-1.089-1.384A1.432 1.432 0 0013.564.092H3.379c-.788 0-1.43.642-1.43 1.43V15.39a1.43 1.43 0 001.093 1.385zm11.952-1.385V1.822c.296.14.5.444.5.789v13.866a.874.874 0 01-.873.874H4.436a.871.871 0 01-.804-.532h9.932c.788 0 1.43-.642 1.43-1.43zM2.506 1.522c0-.481.392-.873.873-.873h10.185c.481 0 .873.392.873.873V15.39a.874.874 0 01-.873.873H3.379a.874.874 0 01-.873-.873V1.522z"/><path d="M4.595 3.004h7.754a.278.278 0 000-.557H4.595a.278.278 0 000 .557zm0 2.21h7.754a.278.278 0 000-.557H4.595a.278.278 0 000 .557zm0 2.211h7.754a.278.278 0 000-.557H4.595a.278.278 0 000 .557zm0 2.21h7.754a.278.278 0 000-.556H4.595a.278.278 0 000 .556zm0 2.211h7.754a.278.278 0 000-.557H4.595a.278.278 0 100 .557zm0 2.21h7.754a.278.278 0 000-.556H4.595a.278.278 0 000 .556z"/></g><defs><clipPath id="abclip0_660_4464"><path fill="#fff" d="M0 0h18v18H0z"/></clipPath></defs></svg><svg fill="none" viewBox="0 0 5 8" id="sprite--breadcrumbs" xmlns="http://www.w3.org/2000/svg"><path d="M4.864 3.688L1.077.128A.478.478 0 00.747 0a.478.478 0 00-.329.128L.14.39a.42.42 0 000 .619l3.18 2.99L.137 6.99a.422.422 0 000 .62l.279.261A.478.478 0 00.745 8a.478.478 0 00.328-.128L4.864 4.31a.422.422 0 000-.621z" fill="#70707A"/></svg><svg fill="none" viewBox="0 0 40 40" id="sprite--check-green" xmlns="http://www.w3.org/2000/svg"><path d="M20 1.667A18.333 18.333 0 1038.333 20 18.355 18.355 0 0020 1.666zM20 35a15 15 0 1115-15 15.017 15.017 0 01-15 15z" fill="#17C2AC"/><path d="M27.206 14.605l-8.823 8.088-3.871-3.871a1.668 1.668 0 00-2.742.526 1.665 1.665 0 00.385 1.83l5 5a1.667 1.667 0 002.305.05l10-9.166a1.667 1.667 0 10-2.254-2.457z" fill="#17C2AC"/></svg><svg fill="none" viewBox="0 0 14 10" id="sprite--check-mini" xmlns="http://www.w3.org/2000/svg"><path d="M11.618.386L4.884 6.792 2.387 4.418a1.447 1.447 0 00-1.977 0 1.282 1.282 0 000 1.88l3.485 3.314c.274.26.631.388.989.388.357 0 .714-.127.988-.388l7.717-7.345a1.28 1.28 0 000-1.88 1.45 1.45 0 00-1.97 0z" fill="#8EDB00"/></svg><svg fill="none" viewBox="0 0 18 18" id="sprite--check-oval" xmlns="http://www.w3.org/2000/svg"><g clip-path="url(#afclip0_1154_42081)"><path d="M17.965 9a8.964 8.964 0 01-1.525 4.996.702.702 0 11-1.17-.781A7.562 7.562 0 0016.32 7.1a.703.703 0 011.361-.35c.188.73.284 1.487.284 2.249zm-5.072 6.5a7.58 7.58 0 01-3.928 1.094C4.778 16.594 1.37 13.187 1.37 9s3.407-7.594 7.594-7.594c1.55 0 3.04.464 4.311 1.342a.703.703 0 00.8-1.157A8.95 8.95 0 008.964 0 8.941 8.941 0 002.6 2.636 8.941 8.941 0 00-.035 9a8.94 8.94 0 002.636 6.364A8.941 8.941 0 008.965 18a8.985 8.985 0 004.657-1.297.703.703 0 10-.729-1.203zm-3.86-4.461a.4.4 0 01-.296-.112L5.054 7.435a.703.703 0 10-.968 1.02l3.682 3.492a1.795 1.795 0 001.321.497 1.797 1.797 0 001.301-.63l7.42-9.229a.703.703 0 10-1.096-.881l-7.405 9.21a.402.402 0 01-.276.125z" fill="#168D7F"/></g><defs><clipPath id="afclip0_1154_42081"><path fill="#fff" d="M0 0h18v18H0z"/></clipPath></defs></svg><svg fill="none" viewBox="0 0 34 34" id="sprite--check-yellow" xmlns="http://www.w3.org/2000/svg"><rect opacity=".8" width="34" height="34" rx="5" fill="#FACC49"/><g clip-path="url(#agclip0_1199_590)"><path d="M26.96 17a9.96 9.96 0 01-1.693 5.551.78.78 0 11-1.3-.868 8.401 8.401 0 001.166-6.793.781.781 0 011.513-.39c.209.813.315 1.654.315 2.5zm-5.634 7.222a8.422 8.422 0 01-4.365 1.215c-4.652 0-8.438-3.785-8.438-8.437 0-4.652 3.786-8.438 8.438-8.438 1.723 0 3.379.516 4.79 1.491a.781.781 0 00.888-1.285A9.944 9.944 0 0016.961 7 9.935 9.935 0 009.89 9.929 9.935 9.935 0 006.96 17a9.935 9.935 0 002.93 7.071A9.935 9.935 0 0016.96 27a9.983 9.983 0 005.175-1.441.781.781 0 10-.81-1.337zm-4.29-4.957a.445.445 0 01-.329-.124l-4.091-3.88a.781.781 0 10-1.075 1.134l4.09 3.879a1.995 1.995 0 001.468.552 1.997 1.997 0 001.446-.7l8.243-10.254a.781.781 0 10-1.217-.979l-8.228 10.234a.446.446 0 01-.307.138z" fill="#1D2120"/></g><defs><clipPath id="agclip0_1199_590"><path fill="#fff" transform="translate(7 7)" d="M0 0h20v20H0z"/></clipPath></defs></svg><svg fill="none" viewBox="0 0 18 18" id="sprite--close" xmlns="http://www.w3.org/2000/svg"><g fill="#1D2120"><path d="M17.308 2.077L2.077 17.307a.98.98 0 01-1.385-1.384L15.923.693a.98.98 0 011.385 1.384z"/><path d="M15.923 17.308L.693 2.077A.98.98 0 012.076.692l15.23 15.231a.98.98 0 01-1.384 1.385z"/></g></svg><svg fill="none" viewBox="0 0 12 12" id="sprite--close-red" xmlns="http://www.w3.org/2000/svg"><path d="M11.532.468a1.593 1.593 0 00-2.256 0L6 3.75 2.724.475a1.593 1.593 0 00-2.256 0 1.592 1.592 0 000 2.255l3.276 3.275L.468 9.28A1.592 1.592 0 001.596 12c.408 0 .816-.153 1.128-.465L6 8.26l3.276 3.275c.312.312.72.465 1.128.465a1.592 1.592 0 001.128-2.72L8.256 5.998l3.276-3.274a1.592 1.592 0 000-2.256z" fill="#FF5858"/></svg><svg fill="none" viewBox="0 0 18 18" id="sprite--date" xmlns="http://www.w3.org/2000/svg"><g clip-path="url(#ajclip0_1154_41854)" fill="#168D7F"><path d="M16.125 3H14.5v1H16v11H2V4h1.5V3H1.875A.89.89 0 001 3.905v11.19a.89.89 0 00.875.905h14.25a.89.89 0 00.875-.905V3.905A.89.89 0 0016.125 3z"/><path d="M4 7h1v1H4V7zm3 0h1v1H7V7zm3 0h1v1h-1V7zm3 0h1v1h-1V7zM4 9.5h1v1H4v-1zm3 0h1v1H7v-1zm3 0h1v1h-1v-1zm3 0h1v1h-1v-1zM4 12h1v1H4v-1zm3 0h1v1H7v-1zm3 0h1v1h-1v-1zm3 0h1v1h-1v-1zM5 5a.5.5 0 00.5-.5v-3a.5.5 0 10-1 0v3A.5.5 0 005 5zm8 0a.5.5 0 00.5-.5v-3a.5.5 0 00-1 0v3a.5.5 0 00.5.5zM6.5 3h5v1h-5V3z"/></g><defs><clipPath id="ajclip0_1154_41854"><path fill="#fff" d="M0 0h18v18H0z"/></clipPath></defs></svg><svg fill="none" viewBox="0 0 18 18" id="sprite--experience" xmlns="http://www.w3.org/2000/svg"><g clip-path="url(#akclip0_660_4446)" fill="#168D7F"><path d="M14.115 11.893c0-.596-.481-1.102-1.102-1.102h-2.512a.164.164 0 01-.15-.233c.465-.965 1.188-1.536 1.271-1.662a1.855 1.855 0 00-.067-2.14.611.611 0 00-.96-.025l-1.08 1.284a3.69 3.69 0 01-.984.83c-1.022.588-1.53 1.341-1.778 1.871a.427.427 0 01-.39.242h-.396a1.017 1.017 0 00-.985-.774h-4.7a.281.281 0 00-.282.281v6.723c0 .155.126.281.281.281h4.701c.477 0 .875-.33.985-.774h.157c.287 0 .572.043.846.128l1.49.459c.328.101.668.152 1.012.152h2.839c.453 0 .843-.31.927-.738a.922.922 0 00-.105-.63c.36-.164.613-.527.613-.949a1.03 1.03 0 00-.208-.617 1.1 1.1 0 00.577-.964 1.1 1.1 0 00-.372-.82c.243-.214.372-.51.372-.823zM5.437 16.45a.456.456 0 01-.455.456H.562v-6.16h4.42c.251 0 .455.204.455.455v5.25zm5.805-4.017a.281.281 0 100 .563h1.743c.268 0 .517.183.56.448a.542.542 0 01-.532.632h-1.77a.281.281 0 000 .563h1.438c.238 0 .458.162.496.397a.48.48 0 01-.471.56h-1.464a.281.281 0 000 .563h1.096a.357.357 0 01.348.429c-.032.161-.193.283-.375.283H9.47c-.286 0-.57-.043-.843-.127l-1.494-.46a3.433 3.433 0 00-1.01-.152H6V11.52h.362a.99.99 0 00.901-.568c.213-.455.654-1.106 1.548-1.621a4.237 4.237 0 001.134-.955l1.08-1.285c.023-.027.061-.022.081.004.17.225.26.495.26.779 0 .333-.16.641-.39.877-.503.517-.873 1.028-1.128 1.555a.727.727 0 00.652 1.046h2.513a.54.54 0 010 1.081h-1.77zM9.347 3.749c.063.06.091.149.076.235l-.117.683a.828.828 0 001.201.872l.612-.323a.27.27 0 01.247 0l.61.322a.828.828 0 001.202-.87l-.116-.685a.264.264 0 01.076-.234l.494-.481a.828.828 0 00-.458-1.411l-.685-.1a.265.265 0 01-.2-.145l-.305-.62A.827.827 0 0010.501.99l-.308.622a.264.264 0 01-.2.145l-.683.1a.828.828 0 00-.457 1.411l.494.481zm.044-1.336l.684-.1a.827.827 0 00.622-.451l.308-.622a.265.265 0 01.474 0l.307.62c.12.245.353.414.622.454l.684.1a.265.265 0 01.147.451l-.494.482a.828.828 0 00-.237.73l.116.686a.264.264 0 01-.385.278l-.61-.322a.827.827 0 00-.772 0l-.612.322a.265.265 0 01-.385-.28l.118-.682a.828.828 0 00-.239-.733l-.494-.481a.264.264 0 01.146-.452zm8.404 4.247a.677.677 0 00-.375-1.155l-.496-.072a.115.115 0 01-.087-.063l-.221-.45a.677.677 0 00-1.215 0l-.223.45a.114.114 0 01-.087.063l-.495.072a.677.677 0 00-.375 1.156l.359.348c.027.027.04.065.033.102l-.085.496a.678.678 0 00.983.714l.444-.234a.114.114 0 01.107 0l.442.233a.677.677 0 00.985-.712l-.085-.497a.116.116 0 01.033-.101l.358-.35zm-.392-.402l-.358.349a.678.678 0 00-.195.598l.084.497a.114.114 0 01-.167.12l-.442-.233a.678.678 0 00-.632 0l-.444.234a.115.115 0 01-.167-.121l.085-.496a.678.678 0 00-.195-.6l-.358-.348a.115.115 0 01.063-.196l.496-.073c.22-.032.41-.17.509-.37l.223-.45a.114.114 0 01.206 0l.222.45c.099.2.289.338.51.37l.496.073a.115.115 0 01.064.196z"/><path d="M5.048 7.01c.028.026.04.064.034.101l-.085.496a.678.678 0 00.983.714l.444-.234a.114.114 0 01.107 0l.442.233a.677.677 0 00.984-.712l-.084-.497a.116.116 0 01.033-.102l.358-.349a.677.677 0 00-.375-1.155l-.496-.072a.115.115 0 01-.087-.063l-.222-.45a.677.677 0 00-1.214 0l-.224.45a.114.114 0 01-.086.063l-.495.072a.677.677 0 00-.375 1.156l.358.348zm.098-.948l.495-.073a.678.678 0 00.51-.37l.223-.45a.115.115 0 01.206 0l.222.45c.098.2.289.338.51.37l.496.073a.114.114 0 01.063.196l-.358.349a.678.678 0 00-.194.598l.084.497a.115.115 0 01-.167.12l-.442-.233a.678.678 0 00-.632 0l-.444.234a.115.115 0 01-.167-.121l.085-.496a.678.678 0 00-.195-.6l-.359-.348a.115.115 0 01.064-.196z"/></g><defs><clipPath id="akclip0_660_4446"><path fill="#fff" d="M0 0h18v18H0z"/></clipPath></defs></svg><svg viewBox="0 0 30 29" id="sprite--facebook"><path d="M15 .2C7.047.2.6 6.647.6 14.6S7.047 29 15 29s14.4-6.447 14.4-14.4S22.953.2 15 .2zm3.41 9.951h-2.164c-.256 0-.541.338-.541.786V12.5h2.707l-.41 2.23h-2.297v6.69H13.15v-6.69h-2.317V12.5h2.317v-1.31c0-1.882 1.305-3.41 3.096-3.41h2.165v2.371z"/></svg><svg fill="none" viewBox="0 0 18 10" id="sprite--faq" xmlns="http://www.w3.org/2000/svg"><path d="M1.045.616a1.25 1.25 0 011.768 0L9 6.804 15.188.616a1.25 1.25 0 011.767 1.768L9.884 9.455a1.25 1.25 0 01-1.768 0l-7.07-7.071a1.25 1.25 0 010-1.768z" fill="#000"/></svg><svg fill="none" viewBox="0 0 14 7" id="sprite--footer" xmlns="http://www.w3.org/2000/svg"><path d="M7 6.667a.917.917 0 01-.587-.211l-5.5-4.583A.918.918 0 112.087.46L7 4.568l4.913-3.96a.916.916 0 011.293.137.917.917 0 01-.129 1.338l-5.5 4.428A.917.917 0 017 6.667z" fill="#fff"/></svg><svg fill="none" viewBox="0 0 18 18" id="sprite--graduation" xmlns="http://www.w3.org/2000/svg"><path d="M17.402 5.889l-7.175-3.505c-.619-.31-1.67-.31-2.289 0L.598 5.889C.082 6.136 0 6.487 0 6.673c0 .185.082.515.598.783l.598.289v3.299a1.01 1.01 0 00-.64.928c0 .412.269.783.62.927l-.929 2.949h2.598l-.927-2.949a.992.992 0 00.618-.927.99.99 0 00-.64-.928V8.095l1.094.536v4.289c0 .062.02.124.062.185.103.124 2.02 2.743 5.938 2.743 3.917 0 5.835-2.64 5.917-2.743a.332.332 0 00.062-.185V8.652l2.433-1.196c.515-.247.598-.598.598-.784-.02-.185-.082-.536-.598-.783zm-3.093 6.928c-.33.412-2.103 2.392-5.32 2.392-3.216 0-4.989-1.98-5.319-2.392V8.92l4.268 2.041c.31.144.722.227 1.134.227.433 0 .846-.083 1.155-.248l4.082-2v3.877zm2.804-5.938L14.64 8.095c-.103 0-.185.041-.227.124l-4.474 2.165c-.433.227-1.278.227-1.732 0l-5.505-2.64 6.33-.742a.32.32 0 10-.062-.64l-7.34.867-.742-.35C.7 6.796.66 6.693.66 6.693c0-.02.041-.103.227-.185l7.34-3.526a2.13 2.13 0 01.845-.165c.33 0 .66.062.866.165l7.175 3.505c.186.082.227.165.227.206 0 0-.062.103-.227.186z" fill="#168D7F"/></svg><svg fill="none" viewBox="0 0 40 40" id="sprite--idea" xmlns="http://www.w3.org/2000/svg"><g clip-path="url(#apclip0_1154_49049)" fill="#17C2AC"><path d="M19.999 4.687a1.172 1.172 0 000 2.343 7.04 7.04 0 017.032 7.032 1.172 1.172 0 002.344 0c0-5.17-4.206-9.375-9.376-9.375z"/><path d="M16.98.315C11.685 1.42 7.392 5.673 6.262 11c-.953 4.498.222 9.014 3.225 12.39 1.468 1.65 2.31 3.83 2.31 5.983v2.344a3.52 3.52 0 002.43 3.343c.462 2.736 2.837 4.938 5.773 4.938 2.935 0 5.31-2.201 5.774-4.938a3.521 3.521 0 002.43-3.343v-2.344c0-2.158.844-4.31 2.378-6.06a14.03 14.03 0 003.48-9.252c0-8.872-8.12-15.62-17.082-13.747zM20 37.655c-1.506 0-2.827-1.036-3.315-2.43h6.63c-.488 1.394-1.808 2.43-3.315 2.43zm5.86-5.937c0 .646-.526 1.172-1.172 1.172h-9.375a1.173 1.173 0 01-1.172-1.172v-1.172H25.86v1.172zm2.96-9.949c-1.635 1.865-2.64 4.113-2.896 6.433H14.077a11.58 11.58 0 00-2.838-6.368c-2.503-2.814-3.482-6.585-2.684-10.347.931-4.392 4.51-7.96 8.904-8.878 7.502-1.568 14.26 4.066 14.26 11.453a11.69 11.69 0 01-2.9 7.707zM3.516 14.062H1.172a1.172 1.172 0 000 2.343h2.344a1.172 1.172 0 000-2.344zm.485-5.86L2.344 6.545A1.172 1.172 0 10.687 8.202L2.344 9.86A1.172 1.172 0 104 8.202zm0 12.405a1.172 1.172 0 00-1.657 0L.687 22.265a1.172 1.172 0 101.657 1.657L4 22.265c.458-.458.458-1.2 0-1.658zm34.827-6.545h-2.344a1.172 1.172 0 000 2.343h2.344a1.172 1.172 0 000-2.344zm.485-7.517a1.172 1.172 0 00-1.657 0L36 8.202a1.172 1.172 0 101.657 1.657l1.657-1.657a1.17 1.17 0 000-1.657zm0 15.72l-1.657-1.658A1.172 1.172 0 1036 22.265l1.657 1.657a1.172 1.172 0 101.657-1.657z"/></g><defs><clipPath id="apclip0_1154_49049"><path fill="#fff" d="M0 0h40v40H0z"/></clipPath></defs></svg><svg fill="none" viewBox="0 0 40 40" id="sprite--info" xmlns="http://www.w3.org/2000/svg"><g clip-path="url(#aqclip0_1154_49043)"><path d="M21.563 29.063a1.562 1.562 0 11-3.125 0 1.562 1.562 0 013.125 0zM20 9.375c-.863 0-1.563.7-1.563 1.563v11.874a1.562 1.562 0 103.125 0V10.937c0-.862-.699-1.562-1.562-1.562zm19.915 28.559c.415 1.224-.758 2.396-1.982 1.98l-7.83-2.654a19.94 19.94 0 01-10.104 2.738C8.945 39.998 0 31.052 0 19.998 0 8.946 8.946 0 19.999 0c11.054 0 19.999 8.946 19.999 19.999 0 3.57-.945 7.046-2.738 10.104l2.655 7.83zm-5.686-8.864A16.816 16.816 0 0036.873 20c0-9.327-7.549-16.874-16.874-16.874-9.327 0-16.874 7.548-16.874 16.874 0 9.327 7.548 16.874 16.874 16.874a16.81 16.81 0 009.071-2.644c.4-.255.894-.315 1.343-.163l5.526 1.873-1.873-5.526a1.563 1.563 0 01.163-1.343z" fill="#17C2AC"/></g><defs><clipPath id="aqclip0_1154_49043"><path fill="#fff" d="M0 0h40v40H0z"/></clipPath></defs></svg><svg viewBox="0 0 30 30" id="sprite--instagram"><path fill-rule="evenodd" clip-rule="evenodd" d="M15 30c8.284 0 15-6.716 15-15 0-8.284-6.716-15-15-15C6.716 0 0 6.716 0 15c0 8.284 6.716 15 15 15zm3.195-18.488a.292.292 0 11.584 0 .292.292 0 01-.584 0zm-3.194.905A2.586 2.586 0 0012.418 15a2.586 2.586 0 002.583 2.582A2.586 2.586 0 0017.583 15a2.586 2.586 0 00-2.582-2.583zM12.29 9h5.42A3.293 3.293 0 0121 12.29v5.42A3.293 3.293 0 0117.71 21h-5.42A3.293 3.293 0 019 17.71v-5.42A3.293 3.293 0 0112.29 9zm-.581 6A3.295 3.295 0 0015 18.291 3.295 3.295 0 0018.291 15 3.295 3.295 0 0015 11.709 3.295 3.295 0 0011.709 15zm5.78-3.488a1.001 1.001 0 002 0 1.001 1.001 0 00-2 0z"/></svg><svg fill="none" viewBox="0 0 18 16" id="sprite--like" xmlns="http://www.w3.org/2000/svg"><path d="M12.797.125A5.212 5.212 0 009 1.773a5.203 5.203 0 00-9 3.555c0 5.18 8.356 10.266 8.719 10.466a.563.563 0 00.58 0C9.643 15.594 18 10.508 18 5.328A5.209 5.209 0 0012.797.125zM9 14.649c-1.454-.928-7.875-5.265-7.875-9.32a4.078 4.078 0 017.414-2.344.562.562 0 00.92 0 4.078 4.078 0 017.416 2.343c0 4.053-6.42 8.39-7.875 9.32z" fill="#168D7F"/></svg><svg viewBox="-0.9 2.2 38 30" id="sprite--like-big" xmlns="http://www.w3.org/2000/svg"><path d="M33.144 4.103C31.281 2.082 28.724.97 25.944.97c-2.079 0-3.982.657-5.657 1.952A11.573 11.573 0 0018 5.31a11.566 11.566 0 00-2.287-2.388C14.038 1.626 12.135.97 10.057.97c-2.78 0-5.338 1.113-7.201 3.134C1.014 6.101 0 8.83 0 11.788c0 3.044 1.135 5.831 3.57 8.77 2.18 2.63 5.312 5.3 8.938 8.39a407.142 407.142 0 014.1 3.526 2.111 2.111 0 002.783 0c1.458-1.274 2.862-2.47 4.101-3.527 3.627-3.09 6.759-5.759 8.938-8.389 2.436-2.939 3.57-5.726 3.57-8.77 0-2.958-1.014-5.687-2.856-7.685z"/></svg><svg fill="none" viewBox="0 0 514 661" id="sprite--lines-color" xmlns="http://www.w3.org/2000/svg"><path d="M319.884 24.32c-22.641 44.87-70.838 20.55-93.479 65.418-22.64 44.87 25.557 69.19 2.917 114.059-22.641 44.869-70.838 20.549-93.479 65.418-22.64 44.87 25.557 69.19 2.917 114.059-22.641 44.869-70.838 20.549-93.479 65.418-22.64 44.87 25.557 69.19 2.916 114.059" stroke="#A7D2D2" stroke-miterlimit="10"/><path d="M368.081 48.64c-22.64 44.87-70.838 20.55-93.478 65.419-22.641 44.869 25.556 69.189 2.916 114.058-22.641 44.869-70.838 20.55-93.478 65.419-22.641 44.869 25.556 69.189 2.916 114.058-22.641 44.869-70.838 20.549-93.478 65.419-22.641 44.869 25.556 69.189 2.916 114.058" stroke="#FACC49" stroke-miterlimit="10"/><path d="M416.278 72.96c-22.64 44.869-70.837 20.549-93.478 65.418-22.641 44.869 25.557 69.189 2.916 114.058-22.64 44.87-70.838 20.55-93.478 65.419-22.641 44.869 25.557 69.189 2.916 114.058-22.64 44.87-70.838 20.55-93.478 65.419-22.641 44.869 25.557 69.189 2.916 114.058" stroke="#A7D2D2" stroke-miterlimit="10"/><path d="M464.476 97.28c-22.641 44.869-70.838 20.549-93.479 65.418-22.64 44.87 25.557 69.19 2.916 114.059-22.64 44.869-70.837 20.549-93.478 65.418-22.64 44.87 25.557 69.19 2.916 114.059-22.64 44.869-70.837 20.549-93.478 65.418-22.64 44.87 25.557 69.19 2.916 114.059" stroke="#FACC49" stroke-miterlimit="10"/><path d="M512.672 121.6c-22.641 44.87-70.838 20.55-93.478 65.419-22.641 44.869 25.572 69.159 2.931 114.028s-70.838 20.549-93.478 65.419c-22.641 44.869 25.556 69.189 2.931 114.028-22.625 44.839-70.838 20.549-93.478 65.418-22.641 44.87 25.541 69.22 2.901 114.089" stroke="#A7D2D2" stroke-miterlimit="10"/></svg><svg fill="none" viewBox="0 0 402 295" id="sprite--lines-color-author" xmlns="http://www.w3.org/2000/svg"><mask id="ava" style="mask-type:alpha" maskUnits="userSpaceOnUse" x="0" y="0" width="402" height="295"><path fill="#D9D9D9" d="M0 0h402v295H0z"/></mask><g mask="url(#ava)" stroke-miterlimit="10"><path d="M-6.962-77.408c39.106 31.57 5.195 73.575 44.3 105.144C76.445 59.306 110.356 17.3 149.46 48.868c39.106 31.57 5.195 73.575 44.301 105.144 39.105 31.569 73.016-10.437 112.121 21.132 39.106 31.569 5.195 73.575 44.301 105.144 39.105 31.569 73.016-10.437 112.121 21.132" stroke="#A7D2D2"/><path d="M26.948-119.414c39.106 31.57 5.195 73.576 44.3 105.144C110.355 17.3 144.266-24.707 183.37 6.862c39.106 31.57 5.195 73.575 44.301 105.144 39.105 31.569 73.016-10.437 112.121 21.132 39.106 31.569 5.196 73.575 44.301 105.144 39.106 31.569 73.016-10.437 112.122 21.132" stroke="#FACC49"/><path d="M60.858-161.419c39.106 31.569 5.195 73.575 44.301 105.144 39.105 31.569 73.016-10.438 112.122 21.131 39.105 31.57 5.195 73.576 44.3 105.144 39.106 31.569 73.016-10.437 112.122 21.132 39.105 31.569 5.195 73.575 44.3 105.144 39.106 31.569 73.016-10.437 112.122 21.132" stroke="#A7D2D2"/><path d="M94.77-203.426c39.105 31.569 5.195 73.575 44.3 105.144 39.106 31.57 73.016-10.437 112.122 21.132 39.105 31.57 5.195 73.575 44.3 105.144 39.106 31.57 73.016-10.437 112.122 21.132 39.105 31.569 5.195 73.575 44.3 105.144 39.106 31.569 73.016-10.437 112.122 21.132" stroke="#FACC49"/><path d="M128.681-245.431c39.105 31.569 5.195 73.575 44.3 105.144 39.106 31.569 72.99-10.459 112.095 21.11 39.106 31.57 5.195 73.575 44.301 105.144 39.106 31.57 73.016-10.437 112.095 21.111 39.079 31.548 5.195 73.575 44.301 105.144 39.105 31.569 73.042-10.416 112.148 21.153" stroke="#A7D2D2"/></g></svg><svg fill="none" viewBox="0 0 547 703" id="sprite--lines-green" xmlns="http://www.w3.org/2000/svg"><path d="M340.538 25.89c-24.102 47.766-75.412 21.876-99.514 69.643-24.102 47.766 27.207 73.656 3.105 121.423-24.103 47.766-75.412 21.876-99.514 69.642-24.103 47.767 27.206 73.657 3.104 121.423-24.102 47.766-75.412 21.876-99.514 69.643-24.102 47.766 27.207 73.656 3.105 121.422" stroke="#A7D2D2" stroke-miterlimit="10"/><path d="M391.847 51.78c-24.103 47.767-75.412 21.876-99.514 69.643-24.103 47.766 27.207 73.656 3.104 121.423-24.102 47.766-75.411 21.876-99.514 69.642-24.102 47.767 27.207 73.657 3.105 121.423-24.103 47.766-75.412 21.876-99.514 69.643-24.103 47.766 27.207 73.656 3.104 121.423" stroke="#A7D2D2" stroke-miterlimit="10"/><path d="M443.156 77.67c-24.102 47.767-75.411 21.877-99.514 69.643-24.102 47.766 27.207 73.656 3.105 121.423-24.103 47.766-75.412 21.876-99.514 69.642-24.103 47.767 27.207 73.657 3.104 121.423-24.102 47.767-75.411 21.877-99.514 69.643-24.102 47.766 27.207 73.656 3.105 121.423" stroke="#A7D2D2" stroke-miterlimit="10"/><path d="M494.466 103.56c-24.103 47.767-75.412 21.877-99.514 69.643-24.103 47.766 27.207 73.657 3.104 121.423-24.102 47.766-75.411 21.876-99.514 69.643-24.102 47.766 27.207 73.656 3.105 121.422-24.103 47.767-75.412 21.877-99.514 69.643-24.103 47.766 27.207 73.656 3.104 121.423" stroke="#A7D2D2" stroke-miterlimit="10"/><path d="M545.774 129.451c-24.102 47.766-75.411 21.876-99.514 69.642-24.102 47.766 27.224 73.624 3.121 121.391-24.102 47.766-75.411 21.876-99.514 69.642-24.102 47.767 27.207 73.657 3.121 121.391-24.086 47.734-75.412 21.876-99.514 69.643-24.102 47.766 27.191 73.688 3.088 121.455" stroke="#A7D2D2" stroke-miterlimit="10"/></svg><svg fill="none" viewBox="0 0 560 493" id="sprite--lines_color-contact" xmlns="http://www.w3.org/2000/svg"><path d="M594.868 181.003c-42.042 27.538-71.622-17.622-113.664 9.915-42.042 27.538-12.462 72.698-54.504 100.236-42.042 27.538-71.622-17.623-113.664 9.915s-12.461 72.698-54.503 100.236c-42.042 27.537-71.622-17.623-113.664 9.915-42.042 27.537-12.462 72.697-54.504 100.235" stroke="#A7D2D2" stroke-miterlimit="10"/><path d="M624.448 226.164c-42.042 27.538-71.622-17.623-113.664 9.915s-12.462 72.698-54.504 100.236c-42.042 27.537-71.622-17.623-113.664 9.915-42.042 27.537-12.462 72.698-54.503 100.235-42.042 27.538-71.622-17.622-113.664 9.915-42.042 27.538-12.462 72.698-54.504 100.236" stroke="#FACC49" stroke-miterlimit="10"/><path d="M654.028 271.324c-42.042 27.537-71.622-17.623-113.664 9.915-42.042 27.537-12.462 72.698-54.504 100.235-42.041 27.538-71.622-17.622-113.663 9.915-42.042 27.538-12.462 72.698-54.504 100.236-42.042 27.538-71.622-17.623-113.664 9.915s-12.462 72.698-54.504 100.235" stroke="#A7D2D2" stroke-miterlimit="10"/><path d="M683.608 316.485c-42.041 27.537-71.622-17.623-113.664 9.915-42.041 27.537-12.461 72.698-54.503 100.235-42.042 27.538-71.622-17.622-113.664 9.915-42.042 27.538-12.462 72.698-54.504 100.236-42.042 27.537-71.622-17.623-113.664 9.915-42.042 27.537-12.461 72.698-54.503 100.235" stroke="#FACC49" stroke-miterlimit="10"/><path d="M713.188 361.645c-42.042 27.538-71.622-17.623-113.664 9.915s-12.434 72.679-54.476 100.217c-42.041 27.538-71.622-17.623-113.663 9.915-42.042 27.538-12.462 72.698-54.476 100.217-42.013 27.519-71.622-17.623-113.664 9.915s-12.49 72.716-54.532 100.254" stroke="#A7D2D2" stroke-miterlimit="10"/></svg><svg fill="none" viewBox="0 0 11 15" id="sprite--local" xmlns="http://www.w3.org/2000/svg"><g clip-path="url(#ayclip0_666_39)"><path d="M5.5.001A5.439 5.439 0 00.069 5.433c0 3.718 4.862 9.175 5.069 9.406a.49.49 0 00.728 0c.207-.23 5.068-5.688 5.068-9.406A5.439 5.439 0 005.501.001zm0 8.166a2.736 2.736 0 01-2.732-2.734A2.736 2.736 0 015.5 2.7a2.736 2.736 0 012.733 2.733A2.736 2.736 0 015.5 8.167z" fill="#F8F8F8"/></g><defs><clipPath id="ayclip0_666_39"><path fill="#fff" transform="translate(0 .001)" d="M0 0h11v15H0z"/></clipPath></defs></svg><svg fill="none" viewBox="0 0 20 14" id="sprite--mail" xmlns="http://www.w3.org/2000/svg"><path fill-rule="evenodd" clip-rule="evenodd" d="M0 .7L.714 0h18.572L20 .7v12.6l-.714.7H.714L0 13.3V.7zm1.429 1.449V12.6H18.57V2.15l-8.128 6.11H9.57L1.43 2.149zM17.186 1.4H2.814L10 6.817 17.186 1.4z" fill="#89898D"/></svg><svg fill="none" viewBox="0 0 15 11" id="sprite--mail-oval" xmlns="http://www.w3.org/2000/svg"><g clip-path="url(#baclip0_666_22)" fill="#F8F8F8"><path d="M14.867.981l-4.549 4.52 4.55 4.52c.082-.172.132-.362.132-.565v-7.91c0-.203-.05-.393-.133-.565zM13.682.228H1.319c-.203 0-.393.05-.565.132l5.814 5.785a1.32 1.32 0 001.864 0L14.247.36a1.303 1.303 0 00-.565-.132zM.132.981A1.303 1.303 0 000 1.546v7.91c0 .203.05.393.132.565l4.55-4.52L.131.981z"/><path d="M9.698 6.122l-.644.644a2.2 2.2 0 01-3.107 0l-.644-.644-4.55 4.52c.173.082.363.132.566.132h12.363c.203 0 .393-.05.565-.132l-4.55-4.52z"/></g><defs><clipPath id="baclip0_666_22"><path fill="#fff" transform="translate(0 .001)" d="M0 0h15v11H0z"/></clipPath></defs></svg><svg viewBox="0 0 10 7" id="sprite--menu"><path d="M9.87.783a.446.446 0 00-.673-.02L5 5.135.803.762a.446.446 0 00-.672.02.562.562 0 00.018.741l4.524 4.715c.091.095.21.143.327.143a.454.454 0 00.327-.143l4.524-4.715a.56.56 0 00.018-.74z"/></svg><svg fill="none" viewBox="0 0 14 14" id="sprite--not" xmlns="http://www.w3.org/2000/svg"><path d="M8.283 7.011l5.45-5.451A.906.906 0 1012.452.277L7 5.73 1.549.277A.906.906 0 10.266 1.56l5.451 5.45-5.45 5.452a.906.906 0 101.282 1.283l5.45-5.452 5.452 5.451a.905.905 0 001.283 0 .906.906 0 000-1.282L8.283 7.01z" fill="#EE4646"/></svg><svg fill="none" viewBox="0 0 14 11" id="sprite--ok" xmlns="http://www.w3.org/2000/svg"><path d="M13.675 1.125a1.172 1.172 0 00-1.57 0L5.036 7.688 1.896 4.77a1.172 1.172 0 00-1.57 0 .98.98 0 000 1.458l3.926 3.646c.216.201.5.302.785.302.284 0 .568-.1.785-.302l7.853-7.292a.98.98 0 000-1.458z" fill="#17C2AC"/></svg><svg fill="none" viewBox="0 0 16 17" id="sprite--owner" xmlns="http://www.w3.org/2000/svg"><g clip-path="url(#beclip0_1172_197)" fill="#168D7F"><path d="M6 7.083c1.84 0 3.333-1.585 3.333-3.541S7.84 0 5.999 0C4.16 0 2.666 1.586 2.666 3.542c0 1.956 1.492 3.541 3.333 3.541zm1.69 7.65a1.866 1.866 0 01.135-1.983 1.866 1.866 0 01-.136-1.983l.54-.992c.296-.546.85-.885 1.444-.885a1.6 1.6 0 01.24.018c.022-.058.05-.113.078-.168-.36-.15-.749-.24-1.158-.24H3.167C1.42 8.5 0 10.01 0 11.865v2.479c0 .293.224.531.5.531h7.266l-.077-.142z"/><path d="M14.468 13.082c.014-.11.031-.219.031-.332 0-.114-.018-.222-.03-.332l.6-.483a.369.369 0 00.087-.46l-.54-.992a.324.324 0 00-.417-.15l-.691.31a2.445 2.445 0 00-.546-.345l-.092-.78a.341.341 0 00-.331-.31H11.46a.341.341 0 00-.33.31l-.093.78a2.46 2.46 0 00-.546.345l-.691-.31a.323.323 0 00-.418.15l-.54.992a.37.37 0 00.088.46l.6.483c-.013.11-.03.219-.03.332 0 .114.018.223.03.332l-.6.483a.37.37 0 00-.087.46l.539.992a.324.324 0 00.418.15l.691-.31c.169.136.348.257.546.345l.092.78a.34.34 0 00.33.31h1.078a.34.34 0 00.33-.31l.093-.78c.198-.088.378-.21.546-.345l.691.31a.324.324 0 00.418-.15l.54-.993a.37.37 0 00-.088-.46l-.6-.482zM12 14.167c-.736 0-1.333-.634-1.333-1.417s.597-1.417 1.333-1.417c.737 0 1.334.634 1.334 1.417s-.597 1.417-1.334 1.417z"/></g><defs><clipPath id="beclip0_1172_197"><path fill="#fff" d="M0 0h16v17H0z"/></clipPath></defs></svg><svg fill="none" viewBox="0 0 15 15" id="sprite--phone" xmlns="http://www.w3.org/2000/svg"><path d="M14.592 11.008l-2.094-2.093c-.747-.747-2.018-.448-2.317.524-.225.672-.972 1.046-1.645.897-1.495-.374-3.514-2.318-3.888-3.888-.224-.673.225-1.42.898-1.645.971-.299 1.27-1.57.523-2.317L3.976.392C3.378-.13 2.48-.13 1.957.392l-1.42 1.42C-.883 3.309.687 7.27 4.2 10.785c3.514 3.514 7.476 5.159 8.971 3.663l1.42-1.42c.524-.598.524-1.495 0-2.018z" fill="#F8F8F8"/></svg><svg viewBox="0 0 30 30" id="sprite--pinterest"><path d="M15 .6C7.047.6.6 7.047.6 15S7.047 29.4 15 29.4 29.4 22.953 29.4 15 22.953.6 15 .6zm.985 17.813c-.924-.07-1.31-.528-2.034-.966-.397 2.086-.883 4.087-2.323 5.133-.446-3.156.65-5.523 1.16-8.039-.868-1.462.104-4.404 1.937-3.68 2.255.893-1.953 5.437.872 6.005 2.949.591 4.153-5.118 2.325-6.972-2.643-2.68-7.69-.061-7.07 3.776.15.937 1.12 1.222.387 2.517-1.69-.375-2.196-1.709-2.13-3.486.104-2.91 2.615-4.949 5.132-5.23 3.184-.353 6.172 1.17 6.586 4.166.464 3.381-1.438 7.04-4.842 6.776z"/></svg><svg viewBox="0 0 22 25" id="sprite--play" xmlns="http://www.w3.org/2000/svg"><path d="M20.888 14.435L3.391 24.69C1.906 25.56 0 24.506 0 22.753V2.245C0 .495 1.903-.56 3.39.312l17.498 10.254c.338.195.618.476.814.816a2.245 2.245 0 01-.814 3.053z"/></svg><svg fill="none" viewBox="0 0 40 34" id="sprite--quote" xmlns="http://www.w3.org/2000/svg"><path d="M12.802 15.436a10.597 10.597 0 00-2.929-.428c-1.48 0-2.714.339-3.672.753.923-3.38 3.14-9.21 7.558-9.867.41-.06.745-.357.856-.755l.966-3.453a1.049 1.049 0 00-.868-1.322 7.332 7.332 0 00-.988-.067C8.423.297 3.172 5.831.956 13.756c-1.3 4.649-1.682 11.638 1.522 16.037 1.793 2.462 4.408 3.776 7.774 3.908h.041c4.154 0 7.836-2.796 8.957-6.8a9.244 9.244 0 00-.853-7.07c-1.206-2.143-3.193-3.704-5.595-4.395zm25.997 4.394c-1.206-2.142-3.193-3.703-5.595-4.394a10.595 10.595 0 00-2.928-.428 9.21 9.21 0 00-3.673.753c.923-3.38 3.14-9.21 7.559-9.867a1.05 1.05 0 00.856-.755l.965-3.453a1.049 1.049 0 00-.868-1.322 7.324 7.324 0 00-.987-.067c-5.303 0-10.554 5.534-12.77 13.459-1.3 4.649-1.682 11.638 1.523 16.038 1.792 2.461 4.408 3.776 7.774 3.907l.041.001c4.153 0 7.836-2.797 8.956-6.8a9.25 9.25 0 00-.853-7.071z" fill="#17C2AC"/></svg><svg fill="none" viewBox="0 0 15 17" id="sprite--redactor" xmlns="http://www.w3.org/2000/svg"><path d="M7.15 8.008c2.168 0 3.925-1.792 3.925-4.004C11.075 1.793 9.318 0 7.15 0S3.225 1.793 3.225 4.004c0 2.212 1.757 4.004 3.925 4.004zm.853 8.838a.525.525 0 00.898-.37c.187-.11.428-.245.681-.374 1.027-.523 1.3-.465 1.327-.457a.272.272 0 00.328-.153c.153-.354.883-1.245 1.445-1.586a.27.27 0 00.053-.042.332.332 0 00.356-.515l1.837-1.437a.185.185 0 00.017-.277L13.202 9.89a.184.184 0 00-.276.017l-1.433 1.841a.332.332 0 00-.515.354.27.27 0 00-.044.054c-.365.605-1.245 1.305-1.58 1.45a.273.273 0 00-.152.329c.008.028.066.3-.456 1.33-.13.254-.264.494-.373.683a.528.528 0 00-.37.9zm2.12-2.265a.272.272 0 11.141.141l-1.477 1.48s-.015-.034-.061-.08a.325.325 0 00-.08-.062l1.476-1.479z" fill="#168D7F"/><path fill-rule="evenodd" clip-rule="evenodd" d="M6.87 15.244c0 .511.07 1.006.202 1.475H.596A.597.597 0 010 16.122v-2.787a3.784 3.784 0 013.777-3.781h6.759c.487 0 .95.1 1.38.27l-.011.021-.001.002a5.404 5.404 0 00-5.035 5.397z" fill="#168D7F"/></svg><svg viewBox="0 0 16 16" id="sprite--search"><path d="M15 15l-3.306-3.311L15 15zm-1.474-7.737A6.263 6.263 0 111 7.263a6.263 6.263 0 0112.526 0z"/></svg><svg fill="none" viewBox="0 0 12 22" id="sprite--slider" xmlns="http://www.w3.org/2000/svg"><path d="M.267.259A.89.89 0 000 .892a.89.89 0 00.267.633L9.835 11 .267 20.473a.89.89 0 00-.267.633.89.89 0 00.56.826.92.92 0 00.987-.193l10.174-10.078A.931.931 0 0012 11c0-.247-.1-.485-.279-.662L1.547.261A.895.895 0 00.907 0a.921.921 0 00-.64.26z" fill="#fff"/></svg><svg fill="none" viewBox="0 0 86 86" id="sprite--success" xmlns="http://www.w3.org/2000/svg"><g clip-path="url(#bmclip0_1205_2462)" fill="#17C2AC"><path d="M81.885 24.607A42.878 42.878 0 0065.81 6.534C56.068.454 44.528-1.478 33.342 1.108 22.155 3.678 12.63 10.464 6.55 20.207.453 29.948-1.48 41.47 1.108 52.675c2.587 11.187 9.373 20.71 19.098 26.79 6.854 4.284 14.714 6.552 22.76 6.552h.52a43.216 43.216 0 0022.56-6.685 4.19 4.19 0 001.292-5.795 4.19 4.19 0 00-5.794-1.294 34.709 34.709 0 01-18.158 5.392c-6.618.084-13.085-1.747-18.729-5.257-7.844-4.905-13.303-12.565-15.369-21.568-2.066-9.003-.52-18.275 4.384-26.119C23.784 8.516 45.183 3.578 61.36 13.69a34.44 34.44 0 0112.933 14.53A34.604 34.604 0 0177.4 46.897a4.193 4.193 0 003.712 4.636 4.193 4.193 0 004.636-3.712 43.18 43.18 0 00-3.864-23.214z"/><path d="M56.891 28.42L36.634 48.677l-7.508-7.508a4.197 4.197 0 00-5.946 0 4.197 4.197 0 000 5.946l10.48 10.481a4.182 4.182 0 002.973 1.227 4.18 4.18 0 002.973-1.227l23.214-23.23a4.197 4.197 0 000-5.946c-1.647-1.629-4.3-1.629-5.93 0z"/></g><defs><clipPath id="bmclip0_1205_2462"><path fill="#fff" d="M0 0h86v86H0z"/></clipPath></defs></svg><svg viewBox="0 0 30 30" id="sprite--telegram"><path fill-rule="evenodd" clip-rule="evenodd" d="M30 15c0 8.284-6.716 15-15 15-8.284 0-15-6.716-15-15C0 6.716 6.716 0 15 0c8.284 0 15 6.716 15 15zm-14.463-3.926c-1.458.606-4.375 1.862-8.747 3.767-.71.283-1.083.559-1.116.829-.058.458.515.638 1.292.881l.329.105c.766.249 1.796.54 2.331.552.487.01 1.029-.19 1.628-.6 4.085-2.76 6.194-4.153 6.326-4.183.094-.021.224-.049.311.03.088.078.079.225.07.265-.057.241-2.3 2.327-3.462 3.408a35.4 35.4 0 00-.671.63c-.118.12-.238.237-.353.348-.713.685-1.245 1.2.03 2.04.612.404 1.102.738 1.591 1.07.534.364 1.067.726 1.756 1.179.175.115.343.234.507.35.621.444 1.18.841 1.87.779.4-.038.815-.414 1.025-1.538.496-2.657 1.473-8.412 1.7-10.785a2.642 2.642 0 00-.025-.59.632.632 0 00-.215-.406c-.179-.146-.456-.178-.581-.175-.564.01-1.43.311-5.595 2.044z"/></svg><svg viewBox="0 0 30 30" id="sprite--twitter"><path d="M15 .6C7.047.6.6 7.047.6 15S7.047 29.4 15 29.4 29.4 22.953 29.4 15 22.953.6 15 .6zm5.857 11.796c.006.123.008.246.008.366 0 3.75-2.852 8.072-8.069 8.072a8.002 8.002 0 01-4.347-1.275c.22.027.447.037.677.037a5.68 5.68 0 003.522-1.213 2.843 2.843 0 01-2.65-1.968c.425.08.863.063 1.28-.05a2.838 2.838 0 01-2.275-2.78v-.035c.382.211.82.34 1.285.355a2.835 2.835 0 01-.877-3.789 8.064 8.064 0 005.845 2.966 2.836 2.836 0 014.833-2.588 5.695 5.695 0 001.8-.688 2.85 2.85 0 01-1.246 1.57 5.698 5.698 0 001.629-.448c-.38.57-.86 1.067-1.415 1.468z"/></svg><svg viewBox="0 0 19 11" id="sprite--up"><path d="M8.935.406L.638 9.114a.781.781 0 000 1.078l.009.01a.719.719 0 001.042 0l7.813-8.2 7.81 8.2a.72.72 0 001.041 0l.01-.01a.78.78 0 000-1.078L10.066.406a.782.782 0 00-1.131 0z"/></svg><svg fill="none" viewBox="0 0 12 12" id="sprite--verification" xmlns="http://www.w3.org/2000/svg"><path d="M8.652 4.096a.469.469 0 010 .663L5.508 7.904a.469.469 0 01-.663 0L3.348 6.407a.469.469 0 11.663-.663l1.165 1.165L7.99 4.096a.469.469 0 01.663 0zM12 6c0 3.316-2.684 6-6 6-3.317 0-6-2.684-6-6 0-3.317 2.684-6 6-6s6 2.684 6 6zm-.938 0A5.06 5.06 0 006 .937 5.06 5.06 0 00.937 6 5.06 5.06 0 006 11.063 5.06 5.06 0 0011.063 6z" fill="#17C2AC"/></svg><svg viewBox="0 0 30 30" id="sprite--viber"><path d="M22.08 10.49c-.13-.511-.51-1.094-.988-1.594-.586-.613-1.336-1.113-1.993-1.26a21.818 21.818 0 00-8.2 0c-1.193.267-2.688 1.705-2.98 2.854a15.682 15.682 0 000 6.731c.235.931 1.256 2.046 2.267 2.581.224.123.464.216.713.275a.11.11 0 01.092.109v3.272a.181.181 0 00.312.125l1.556-1.594 1.459-1.5a.105.105 0 01.082-.034c1.575.042 3.15-.084 4.697-.378 1.194-.266 2.689-1.705 2.982-2.856.488-2.217.488-4.513.002-6.73zm-2.938 6.897a2.525 2.525 0 01-1.084 1.193 2.417 2.417 0 01-.469.15c-.182-.056-.356-.092-.511-.16a12.885 12.885 0 01-3.554-2.097 9.375 9.375 0 01-.892-.874 11.527 11.527 0 01-1.704-2.603c-.219-.443-.403-.905-.59-1.364-.17-.417.082-.852.34-1.162.254-.29.566-.523.916-.682a.586.586 0 01.735.17c.432.49.813 1.023 1.137 1.59a.758.758 0 01-.213 1.024c-.086.057-.17.127-.244.192a.775.775 0 00-.184.196.533.533 0 00-.041.474c.329.905.828 1.659 1.575 2.189.252.179.525.329.811.446.187.102.398.153.61.149.372-.045.495-.454.754-.667a.715.715 0 01.852-.037c.276.17.542.36.808.55.263.179.516.372.759.578a.604.604 0 01.189.745zm-2.448-4.091a.36.36 0 01-.02-.087 2.407 2.407 0 00-.052-.341.989.989 0 00-.364-.573 1.008 1.008 0 00-.295-.143c-.135-.037-.276-.027-.41-.06a.253.253 0 01-.204-.291.265.265 0 01.278-.213c.78.058 1.364.433 1.514 1.27.015.077.026.156.032.235a.68.68 0 010 .213.22.22 0 01-.18.17h-.038a.256.256 0 01-.26-.18zm-.249-2.112a3.065 3.065 0 00-.828-.254c-.126-.02-.252-.032-.379-.05a.24.24 0 01-.226-.269.239.239 0 01.166-.224.237.237 0 01.098-.01c.5.02.99.148 1.437.376.544.273.989.712 1.27 1.252.158.317.264.657.313 1.008.01.046.017.092.02.138.01.102.013.203.021.33v.048a.684.684 0 01-.02.15.25.25 0 01-.47.024.719.719 0 01-.026-.211 2.742 2.742 0 00-.222-1.108 2.494 2.494 0 00-1.154-1.2zm2.816 3.143c-.17 0-.254-.145-.266-.303-.022-.312-.039-.626-.082-.936a3.92 3.92 0 00-3.16-3.28c-.245-.042-.496-.052-.743-.08-.157-.015-.363-.025-.397-.221a.268.268 0 01.264-.302h.182a4.524 4.524 0 013.69 2.045c.323.502.543 1.063.645 1.65.065.37.089.749.118 1.124a.264.264 0 01-.25.303z"/><path d="M15 0a15 15 0 100 30 15 15 0 000-30zm8.664 17.579v.02c-.436 1.771-2.41 3.669-4.222 4.064h-.02c-1.458.28-2.938.423-4.422.424-.433 0-.87-.013-1.302-.039l-2.001 2.082a.794.794 0 01-1.364-.551v-1.976a5.063 5.063 0 01-1.328-.615c-1.258-.8-2.349-2.127-2.662-3.389v-.02a17.31 17.31 0 010-7.447v-.022c.436-1.77 2.408-3.667 4.225-4.062h.02c2.918-.56 5.916-.56 8.834 0h.02c.979.213 2.003.864 2.807 1.704.682.708 1.214 1.551 1.415 2.365v.022c.54 2.45.54 4.99 0 7.44z"/></svg><svg fill="none" viewBox="0 0 20 12" id="sprite--view" xmlns="http://www.w3.org/2000/svg"><path d="M10 11c4.97 0 9-5 9-5s-4.03-5-9-5-9 5-9 5 4.03 5 9 5z" stroke="#168D7F" stroke-width="1.138" stroke-linejoin="round"/><path d="M10 8.083c.597 0 1.169-.22 1.591-.61.422-.39.659-.92.659-1.473s-.237-1.082-.659-1.473A2.345 2.345 0 0010 3.917c-.597 0-1.169.22-1.591.61-.422.39-.659.92-.659 1.473s.237 1.082.659 1.473c.422.39.994.61 1.591.61z" stroke="#168D7F" stroke-width="1.138" stroke-linejoin="round"/></svg><svg viewBox="0 0 30 30" id="sprite--youtube"><path d="M17.404 14.75l-3.369-1.572c-.294-.137-.535.016-.535.342v2.96c0 .326.241.48.535.343l3.368-1.572c.295-.138.295-.363.001-.501zM15 .6C7.047.6.6 7.047.6 15S7.047 29.4 15 29.4 29.4 22.953 29.4 15 22.953.6 15 .6zm0 20.25c-7.371 0-7.5-.664-7.5-5.85 0-5.185.129-5.85 7.5-5.85 7.37 0 7.5.665 7.5 5.85 0 5.186-.13 5.85-7.5 5.85z"/></svg></svg>