<svg width="24" height="24" fill="none" xmlns="http://www.w3.org/2000/svg"><path d="M17.608 22.268c-.284 0-.565-.07-.816-.202l-4.675-2.457a.25.25 0 00-.236 0l-4.674 2.457a1.754 1.754 0 01-2.544-1.849l.892-5.204a.253.253 0 00-.075-.225L1.702 11.1a1.754 1.754 0 01.975-2.992l5.222-.758a.253.253 0 00.19-.139l2.335-4.736a1.753 1.753 0 013.145 0l2.336 4.735a.255.255 0 00.19.139l5.228.759a1.754 1.754 0 01.974 2.991l-3.782 3.686a.254.254 0 00-.075.225l.893 5.204a1.755 1.755 0 01-1.725 2.051v.003zM12 18.078c.285 0 .565.07.816.203l4.674 2.457a.24.24 0 00.267-.02.244.244 0 00.102-.247l-.894-5.206a1.757 1.757 0 01.504-1.551l3.782-3.687a.254.254 0 00-.14-.431l-5.226-.76a1.751 1.751 0 01-1.32-.96l-2.34-4.735a.253.253 0 00-.454 0L9.435 7.875a1.751 1.751 0 01-1.32.96l-5.226.76a.253.253 0 00-.14.432l3.781 3.687a1.757 1.757 0 01.504 1.551l-.893 5.206a.253.253 0 00.369.267l4.673-2.457c.252-.133.532-.202.816-.202z" fill="#168D7F"/></svg>